<?xml version="1.0" encoding="UTF-8" standalone="no"?>
<!-- Created with Inkscape (http://www.inkscape.org/) -->

<svg
   version="1.1"
   id="svg2"
   xml:space="preserve"
   width="394.23334"
   height="127.28133"
   viewBox="0 0 394.23334 127.28133"
   sodipodi:docname="fishtail_sim1.pdf"
   xmlns:inkscape="http://www.inkscape.org/namespaces/inkscape"
   xmlns:sodipodi="http://sodipodi.sourceforge.net/DTD/sodipodi-0.dtd"
   xmlns="http://www.w3.org/2000/svg"
   xmlns:svg="http://www.w3.org/2000/svg"><defs
     id="defs6"><clipPath
       clipPathUnits="userSpaceOnUse"
       id="clipPath396"><path
         d="M 0,0 H 261.24295 V 51.57727 H 0 Z"
         id="path394" /></clipPath></defs><sodipodi:namedview
     id="namedview4"
     pagecolor="#ffffff"
     bordercolor="#666666"
     borderopacity="1.0"
     inkscape:pageshadow="2"
     inkscape:pageopacity="0.0"
     inkscape:pagecheckerboard="0" /><g
     id="g8"
     inkscape:groupmode="layer"
     inkscape:label="fishtail_sim1"
     transform="matrix(1.3333333,0,0,-1.3333333,0,127.28133)"><g
       id="g10"
       transform="translate(28.625,30.064)"><g
         id="g12"><g
           id="g14" /><g
           id="g16"><g
             id="g18" /><g
             id="g20" /><g
             id="g22"><g
               id="g24" /></g><g
             id="g26" /><g
             id="g28" /><g
             id="g30" /><g
             id="g32" /><g
             id="g34"
             transform="translate(-28.625,-30.064)"><g
               id="g36"
               transform="translate(28.625,30.064)"><g
                 id="g38"><g
                   id="g40" /><g
                   id="g42"><g
                     id="g44"><g
                       id="g46"><g
                         id="g48"><path
                           d="M 0,0 V 4.25171 M 26.12428,0 V 4.25171 M 52.24858,0 V 4.25171 M 78.37288,0 V 4.25171 M 104.49718,0 V 4.25171 M 130.62148,0 V 4.25171 M 156.74577,0 V 4.25171 M 182.87006,0 V 4.25171 M 208.99435,0 V 4.25171 M 235.11865,0 V 4.25171 M 261.24295,0 V 4.25171 M 0,51.57727 v -4.25174 m 26.12428,4.25174 v -4.25174 m 26.1243,4.25174 v -4.25174 m 26.1243,4.25174 v -4.25174 m 26.1243,4.25174 v -4.25174 m 26.1243,4.25174 v -4.25174 m 26.12429,4.25174 v -4.25174 m 26.12429,4.25174 v -4.25174 m 26.12429,4.25174 v -4.25174 m 26.1243,4.25174 v -4.25174 m 26.1243,4.25174 v -4.25174"
                           style="fill:none;stroke:#808080;stroke-width:0.19925;stroke-linecap:butt;stroke-linejoin:miter;stroke-miterlimit:10;stroke-dasharray:none;stroke-opacity:1"
                           id="path50" /></g></g><g
                       id="g52"><g
                         id="g54"><path
                           d="M 0,6.44716 H 4.2527 M 0,19.34148 H 4.2527 M 0,32.2358 H 4.2527 M 0,45.13011 H 4.2527 M 261.24295,6.44716 h -4.25272 m 4.25272,12.89432 h -4.25272 m 4.25272,12.89432 h -4.25272 m 4.25272,12.89431 h -4.25272"
                           style="fill:none;stroke:#808080;stroke-width:0.19925;stroke-linecap:butt;stroke-linejoin:miter;stroke-miterlimit:10;stroke-dasharray:none;stroke-opacity:1"
                           id="path56" /></g></g><path
                       d="M 0,0 V 51.57727 H 261.24295 V 0 Z"
                       style="fill:none;stroke:#46413c;stroke-width:0.3985;stroke-linecap:butt;stroke-linejoin:miter;stroke-miterlimit:10;stroke-dasharray:none;stroke-opacity:1"
                       id="path58" /><g
                       id="g60"><g
                         id="g62"
                         transform="translate(-2.491,-9.941)"><g
                           id="g64"><g
                             id="g66"
                             transform="translate(-26.134,-20.123)"><text
                               transform="matrix(1,0,0,-1,26.134,20.123)"
                               style="font-variant:normal;font-weight:normal;font-size:9.96264px;font-family:CMR10;-inkscape-font-specification:CMR10;writing-mode:lr-tb;fill:#46413c;fill-opacity:1;fill-rule:nonzero;stroke:none"
                               id="text70"><tspan
                                 x="0"
                                 y="0"
                                 id="tspan68">0</tspan></text><g
                               id="g72"
                               transform="translate(26.134,20.123)" /></g></g><g
                           id="g74"
                           transform="translate(2.491,9.941)" /></g></g><g
                       id="g76"><g
                         id="g78"
                         transform="translate(19.758,-9.941)"><g
                           id="g80"><g
                             id="g82"
                             transform="translate(-48.383,-20.123)"><text
                               transform="matrix(1,0,0,-1,48.383,20.123)"
                               style="font-variant:normal;font-weight:normal;font-size:9.96264px;font-family:CMR10;-inkscape-font-specification:CMR10;writing-mode:lr-tb;fill:#46413c;fill-opacity:1;fill-rule:nonzero;stroke:none"
                               id="text86"><tspan
                                 x="0"
                                 y="0"
                                 id="tspan84">0</tspan></text><text
                               transform="matrix(1,0,0,-1,53.365,20.123)"
                               style="font-variant:normal;font-weight:normal;font-size:9.96264px;font-family:CMMI10;-inkscape-font-specification:CMMI10;writing-mode:lr-tb;fill:#46413c;fill-opacity:1;fill-rule:nonzero;stroke:none"
                               id="text90"><tspan
                                 x="0"
                                 y="0"
                                 id="tspan88">.</tspan></text><text
                               transform="matrix(1,0,0,-1,56.132,20.123)"
                               style="font-variant:normal;font-weight:normal;font-size:9.96264px;font-family:CMR10;-inkscape-font-specification:CMR10;writing-mode:lr-tb;fill:#46413c;fill-opacity:1;fill-rule:nonzero;stroke:none"
                               id="text94"><tspan
                                 x="0"
                                 y="0"
                                 id="tspan92">2</tspan></text><g
                               id="g96"
                               transform="translate(48.383,20.123)" /></g></g><g
                           id="g98"
                           transform="translate(-19.758,9.941)" /></g></g><g
                       id="g100"><g
                         id="g102"
                         transform="translate(45.882,-9.941)"><g
                           id="g104"><g
                             id="g106"
                             transform="translate(-74.507,-20.123)"><text
                               transform="matrix(1,0,0,-1,74.507,20.123)"
                               style="font-variant:normal;font-weight:normal;font-size:9.96264px;font-family:CMR10;-inkscape-font-specification:CMR10;writing-mode:lr-tb;fill:#46413c;fill-opacity:1;fill-rule:nonzero;stroke:none"
                               id="text110"><tspan
                                 x="0"
                                 y="0"
                                 id="tspan108">0</tspan></text><text
                               transform="matrix(1,0,0,-1,79.489,20.123)"
                               style="font-variant:normal;font-weight:normal;font-size:9.96264px;font-family:CMMI10;-inkscape-font-specification:CMMI10;writing-mode:lr-tb;fill:#46413c;fill-opacity:1;fill-rule:nonzero;stroke:none"
                               id="text114"><tspan
                                 x="0"
                                 y="0"
                                 id="tspan112">.</tspan></text><text
                               transform="matrix(1,0,0,-1,82.256,20.123)"
                               style="font-variant:normal;font-weight:normal;font-size:9.96264px;font-family:CMR10;-inkscape-font-specification:CMR10;writing-mode:lr-tb;fill:#46413c;fill-opacity:1;fill-rule:nonzero;stroke:none"
                               id="text118"><tspan
                                 x="0"
                                 y="0"
                                 id="tspan116">4</tspan></text><g
                               id="g120"
                               transform="translate(74.507,20.123)" /></g></g><g
                           id="g122"
                           transform="translate(-45.882,9.941)" /></g></g><g
                       id="g124"><g
                         id="g126"
                         transform="translate(72.006,-9.941)"><g
                           id="g128"><g
                             id="g130"
                             transform="translate(-100.631,-20.123)"><text
                               transform="matrix(1,0,0,-1,100.631,20.123)"
                               style="font-variant:normal;font-weight:normal;font-size:9.96264px;font-family:CMR10;-inkscape-font-specification:CMR10;writing-mode:lr-tb;fill:#46413c;fill-opacity:1;fill-rule:nonzero;stroke:none"
                               id="text134"><tspan
                                 x="0"
                                 y="0"
                                 id="tspan132">0</tspan></text><text
                               transform="matrix(1,0,0,-1,105.613,20.123)"
                               style="font-variant:normal;font-weight:normal;font-size:9.96264px;font-family:CMMI10;-inkscape-font-specification:CMMI10;writing-mode:lr-tb;fill:#46413c;fill-opacity:1;fill-rule:nonzero;stroke:none"
                               id="text138"><tspan
                                 x="0"
                                 y="0"
                                 id="tspan136">.</tspan></text><text
                               transform="matrix(1,0,0,-1,108.38,20.123)"
                               style="font-variant:normal;font-weight:normal;font-size:9.96264px;font-family:CMR10;-inkscape-font-specification:CMR10;writing-mode:lr-tb;fill:#46413c;fill-opacity:1;fill-rule:nonzero;stroke:none"
                               id="text142"><tspan
                                 x="0"
                                 y="0"
                                 id="tspan140">6</tspan></text><g
                               id="g144"
                               transform="translate(100.631,20.123)" /></g></g><g
                           id="g146"
                           transform="translate(-72.006,9.941)" /></g></g><g
                       id="g148"><g
                         id="g150"
                         transform="translate(98.13,-9.941)"><g
                           id="g152"><g
                             id="g154"
                             transform="translate(-126.755,-20.123)"><text
                               transform="matrix(1,0,0,-1,126.755,20.123)"
                               style="font-variant:normal;font-weight:normal;font-size:9.96264px;font-family:CMR10;-inkscape-font-specification:CMR10;writing-mode:lr-tb;fill:#46413c;fill-opacity:1;fill-rule:nonzero;stroke:none"
                               id="text158"><tspan
                                 x="0"
                                 y="0"
                                 id="tspan156">0</tspan></text><text
                               transform="matrix(1,0,0,-1,131.737,20.123)"
                               style="font-variant:normal;font-weight:normal;font-size:9.96264px;font-family:CMMI10;-inkscape-font-specification:CMMI10;writing-mode:lr-tb;fill:#46413c;fill-opacity:1;fill-rule:nonzero;stroke:none"
                               id="text162"><tspan
                                 x="0"
                                 y="0"
                                 id="tspan160">.</tspan></text><text
                               transform="matrix(1,0,0,-1,134.504,20.123)"
                               style="font-variant:normal;font-weight:normal;font-size:9.96264px;font-family:CMR10;-inkscape-font-specification:CMR10;writing-mode:lr-tb;fill:#46413c;fill-opacity:1;fill-rule:nonzero;stroke:none"
                               id="text166"><tspan
                                 x="0"
                                 y="0"
                                 id="tspan164">8</tspan></text><g
                               id="g168"
                               transform="translate(126.755,20.123)" /></g></g><g
                           id="g170"
                           transform="translate(-98.13,9.941)" /></g></g><g
                       id="g172"><g
                         id="g174"
                         transform="translate(128.129,-9.941)"><g
                           id="g176"><g
                             id="g178"
                             transform="translate(-156.754,-20.123)"><text
                               transform="matrix(1,0,0,-1,156.754,20.123)"
                               style="font-variant:normal;font-weight:normal;font-size:9.96264px;font-family:CMR10;-inkscape-font-specification:CMR10;writing-mode:lr-tb;fill:#46413c;fill-opacity:1;fill-rule:nonzero;stroke:none"
                               id="text182"><tspan
                                 x="0"
                                 y="0"
                                 id="tspan180">1</tspan></text><g
                               id="g184"
                               transform="translate(156.754,20.123)" /></g></g><g
                           id="g186"
                           transform="translate(-128.129,9.941)" /></g></g><g
                       id="g188"><g
                         id="g190"
                         transform="translate(150.378,-9.941)"><g
                           id="g192"><g
                             id="g194"
                             transform="translate(-179.003,-20.123)"><text
                               transform="matrix(1,0,0,-1,179.003,20.123)"
                               style="font-variant:normal;font-weight:normal;font-size:9.96264px;font-family:CMR10;-inkscape-font-specification:CMR10;writing-mode:lr-tb;fill:#46413c;fill-opacity:1;fill-rule:nonzero;stroke:none"
                               id="text198"><tspan
                                 x="0"
                                 y="0"
                                 id="tspan196">1</tspan></text><text
                               transform="matrix(1,0,0,-1,183.985,20.123)"
                               style="font-variant:normal;font-weight:normal;font-size:9.96264px;font-family:CMMI10;-inkscape-font-specification:CMMI10;writing-mode:lr-tb;fill:#46413c;fill-opacity:1;fill-rule:nonzero;stroke:none"
                               id="text202"><tspan
                                 x="0"
                                 y="0"
                                 id="tspan200">.</tspan></text><text
                               transform="matrix(1,0,0,-1,186.752,20.123)"
                               style="font-variant:normal;font-weight:normal;font-size:9.96264px;font-family:CMR10;-inkscape-font-specification:CMR10;writing-mode:lr-tb;fill:#46413c;fill-opacity:1;fill-rule:nonzero;stroke:none"
                               id="text206"><tspan
                                 x="0"
                                 y="0"
                                 id="tspan204">2</tspan></text><g
                               id="g208"
                               transform="translate(179.003,20.123)" /></g></g><g
                           id="g210"
                           transform="translate(-150.378,9.941)" /></g></g><g
                       id="g212"><g
                         id="g214"
                         transform="translate(176.502,-9.941)"><g
                           id="g216"><g
                             id="g218"
                             transform="translate(-205.127,-20.123)"><text
                               transform="matrix(1,0,0,-1,205.127,20.123)"
                               style="font-variant:normal;font-weight:normal;font-size:9.96264px;font-family:CMR10;-inkscape-font-specification:CMR10;writing-mode:lr-tb;fill:#46413c;fill-opacity:1;fill-rule:nonzero;stroke:none"
                               id="text222"><tspan
                                 x="0"
                                 y="0"
                                 id="tspan220">1</tspan></text><text
                               transform="matrix(1,0,0,-1,210.109,20.123)"
                               style="font-variant:normal;font-weight:normal;font-size:9.96264px;font-family:CMMI10;-inkscape-font-specification:CMMI10;writing-mode:lr-tb;fill:#46413c;fill-opacity:1;fill-rule:nonzero;stroke:none"
                               id="text226"><tspan
                                 x="0"
                                 y="0"
                                 id="tspan224">.</tspan></text><text
                               transform="matrix(1,0,0,-1,212.876,20.123)"
                               style="font-variant:normal;font-weight:normal;font-size:9.96264px;font-family:CMR10;-inkscape-font-specification:CMR10;writing-mode:lr-tb;fill:#46413c;fill-opacity:1;fill-rule:nonzero;stroke:none"
                               id="text230"><tspan
                                 x="0"
                                 y="0"
                                 id="tspan228">4</tspan></text><g
                               id="g232"
                               transform="translate(205.127,20.123)" /></g></g><g
                           id="g234"
                           transform="translate(-176.502,9.941)" /></g></g><g
                       id="g236"><g
                         id="g238"
                         transform="translate(202.626,-9.941)"><g
                           id="g240"><g
                             id="g242"
                             transform="translate(-231.251,-20.123)"><text
                               transform="matrix(1,0,0,-1,231.251,20.123)"
                               style="font-variant:normal;font-weight:normal;font-size:9.96264px;font-family:CMR10;-inkscape-font-specification:CMR10;writing-mode:lr-tb;fill:#46413c;fill-opacity:1;fill-rule:nonzero;stroke:none"
                               id="text246"><tspan
                                 x="0"
                                 y="0"
                                 id="tspan244">1</tspan></text><text
                               transform="matrix(1,0,0,-1,236.233,20.123)"
                               style="font-variant:normal;font-weight:normal;font-size:9.96264px;font-family:CMMI10;-inkscape-font-specification:CMMI10;writing-mode:lr-tb;fill:#46413c;fill-opacity:1;fill-rule:nonzero;stroke:none"
                               id="text250"><tspan
                                 x="0"
                                 y="0"
                                 id="tspan248">.</tspan></text><text
                               transform="matrix(1,0,0,-1,239,20.123)"
                               style="font-variant:normal;font-weight:normal;font-size:9.96264px;font-family:CMR10;-inkscape-font-specification:CMR10;writing-mode:lr-tb;fill:#46413c;fill-opacity:1;fill-rule:nonzero;stroke:none"
                               id="text254"><tspan
                                 x="0"
                                 y="0"
                                 id="tspan252">6</tspan></text><g
                               id="g256"
                               transform="translate(231.251,20.123)" /></g></g><g
                           id="g258"
                           transform="translate(-202.626,9.941)" /></g></g><g
                       id="g260"><g
                         id="g262"
                         transform="translate(228.75,-9.941)"><g
                           id="g264"><g
                             id="g266"
                             transform="translate(-257.375,-20.123)"><text
                               transform="matrix(1,0,0,-1,257.375,20.123)"
                               style="font-variant:normal;font-weight:normal;font-size:9.96264px;font-family:CMR10;-inkscape-font-specification:CMR10;writing-mode:lr-tb;fill:#46413c;fill-opacity:1;fill-rule:nonzero;stroke:none"
                               id="text270"><tspan
                                 x="0"
                                 y="0"
                                 id="tspan268">1</tspan></text><text
                               transform="matrix(1,0,0,-1,262.356,20.123)"
                               style="font-variant:normal;font-weight:normal;font-size:9.96264px;font-family:CMMI10;-inkscape-font-specification:CMMI10;writing-mode:lr-tb;fill:#46413c;fill-opacity:1;fill-rule:nonzero;stroke:none"
                               id="text274"><tspan
                                 x="0"
                                 y="0"
                                 id="tspan272">.</tspan></text><text
                               transform="matrix(1,0,0,-1,265.124,20.123)"
                               style="font-variant:normal;font-weight:normal;font-size:9.96264px;font-family:CMR10;-inkscape-font-specification:CMR10;writing-mode:lr-tb;fill:#46413c;fill-opacity:1;fill-rule:nonzero;stroke:none"
                               id="text278"><tspan
                                 x="0"
                                 y="0"
                                 id="tspan276">8</tspan></text><g
                               id="g280"
                               transform="translate(257.375,20.123)" /></g></g><g
                           id="g282"
                           transform="translate(-228.75,9.941)" /></g></g><g
                       id="g284"><g
                         id="g286"
                         transform="translate(258.748,-9.941)"><g
                           id="g288"><g
                             id="g290"
                             transform="translate(-287.373,-20.123)"><text
                               transform="matrix(1,0,0,-1,287.373,20.123)"
                               style="font-variant:normal;font-weight:normal;font-size:9.96264px;font-family:CMR10;-inkscape-font-specification:CMR10;writing-mode:lr-tb;fill:#46413c;fill-opacity:1;fill-rule:nonzero;stroke:none"
                               id="text294"><tspan
                                 x="0"
                                 y="0"
                                 id="tspan292">2</tspan></text><g
                               id="g296"
                               transform="translate(287.373,20.123)" /></g></g><g
                           id="g298"
                           transform="translate(-258.748,9.941)" /></g></g><g
                       id="g300"><g
                         id="g302"
                         transform="translate(-8.502,3.236)"><g
                           id="g304"><g
                             id="g306"
                             transform="translate(-20.123,-33.3)"><text
                               transform="matrix(1,0,0,-1,20.123,33.3)"
                               style="font-variant:normal;font-weight:normal;font-size:9.96264px;font-family:CMR10;-inkscape-font-specification:CMR10;writing-mode:lr-tb;fill:#46413c;fill-opacity:1;fill-rule:nonzero;stroke:none"
                               id="text310"><tspan
                                 x="0"
                                 y="0"
                                 id="tspan308">0</tspan></text><g
                               id="g312"
                               transform="translate(20.123,33.3)" /></g></g><g
                           id="g314"
                           transform="translate(8.502,-3.236)" /></g></g><g
                       id="g316"><g
                         id="g318"
                         transform="translate(-8.502,16.131)"><g
                           id="g320"><g
                             id="g322"
                             transform="translate(-20.123,-46.195)"><text
                               transform="matrix(1,0,0,-1,20.123,46.195)"
                               style="font-variant:normal;font-weight:normal;font-size:9.96264px;font-family:CMR10;-inkscape-font-specification:CMR10;writing-mode:lr-tb;fill:#46413c;fill-opacity:1;fill-rule:nonzero;stroke:none"
                               id="text326"><tspan
                                 x="0"
                                 y="0"
                                 id="tspan324">1</tspan></text><g
                               id="g328"
                               transform="translate(20.123,46.195)" /></g></g><g
                           id="g330"
                           transform="translate(8.502,-16.131)" /></g></g><g
                       id="g332"><g
                         id="g334"
                         transform="translate(-8.502,29.025)"><g
                           id="g336"><g
                             id="g338"
                             transform="translate(-20.123,-59.089)"><text
                               transform="matrix(1,0,0,-1,20.123,59.089)"
                               style="font-variant:normal;font-weight:normal;font-size:9.96264px;font-family:CMR10;-inkscape-font-specification:CMR10;writing-mode:lr-tb;fill:#46413c;fill-opacity:1;fill-rule:nonzero;stroke:none"
                               id="text342"><tspan
                                 x="0"
                                 y="0"
                                 id="tspan340">2</tspan></text><g
                               id="g344"
                               transform="translate(20.123,59.089)" /></g></g><g
                           id="g346"
                           transform="translate(8.502,-29.025)" /></g></g><g
                       id="g348"><g
                         id="g350"
                         transform="translate(-8.502,41.919)"><g
                           id="g352"><g
                             id="g354"
                             transform="translate(-20.123,-71.983)"><text
                               transform="matrix(1,0,0,-1,20.123,71.983)"
                               style="font-variant:normal;font-weight:normal;font-size:9.96264px;font-family:CMR10;-inkscape-font-specification:CMR10;writing-mode:lr-tb;fill:#46413c;fill-opacity:1;fill-rule:nonzero;stroke:none"
                               id="text358"><tspan
                                 x="0"
                                 y="0"
                                 id="tspan356">3</tspan></text><g
                               id="g360"
                               transform="translate(20.123,71.983)" /></g></g><g
                           id="g362"
                           transform="translate(8.502,-41.919)" /></g></g><g
                       id="g364"><g
                         id="g366"
                         transform="translate(3.188,53.323)"><g
                           id="g368"><g
                             id="g370"
                             transform="translate(-31.813,-83.387)"><text
                               transform="matrix(1,0,0,-1,31.813,83.387)"
                               style="font-variant:normal;font-weight:normal;font-size:9.96264px;font-family:CMSY10;-inkscape-font-specification:CMSY10;writing-mode:lr-tb;fill:#46413c;fill-opacity:1;fill-rule:nonzero;stroke:none"
                               id="text374"><tspan
                                 x="0"
                                 y="0"
                                 id="tspan372">·</tspan></text><text
                               transform="matrix(1,0,0,-1,34.58,83.387)"
                               style="font-variant:normal;font-weight:normal;font-size:9.96264px;font-family:CMR10;-inkscape-font-specification:CMR10;writing-mode:lr-tb;fill:#46413c;fill-opacity:1;fill-rule:nonzero;stroke:none"
                               id="text378"><tspan
                                 x="0 4.9813199"
                                 y="0"
                                 sodipodi:role="line"
                                 id="tspan376">10</tspan></text><text
                               transform="matrix(1,0,0,-1,44.543,87.002)"
                               style="font-variant:normal;font-weight:normal;font-size:6.97385px;font-family:CMSY7;-inkscape-font-specification:CMSY7;writing-mode:lr-tb;fill:#46413c;fill-opacity:1;fill-rule:nonzero;stroke:none"
                               id="text382"><tspan
                                 x="0"
                                 y="0"
                                 id="tspan380">−</tspan></text><text
                               transform="matrix(1,0,0,-1,50.769,87.002)"
                               style="font-variant:normal;font-weight:normal;font-size:6.97385px;font-family:CMR7;-inkscape-font-specification:CMR7;writing-mode:lr-tb;fill:#46413c;fill-opacity:1;fill-rule:nonzero;stroke:none"
                               id="text386"><tspan
                                 x="0"
                                 y="0"
                                 id="tspan384">2</tspan></text><g
                               id="g388"
                               transform="translate(31.813,83.387)" /></g></g><g
                           id="g390"
                           transform="translate(-3.188,-53.323)" /></g></g><g
                       id="g392"
                       clip-path="url(#clipPath396)"><g
                         id="g398"><path
                           d="M 0,6.44739 H 0.13062 0.26125 0.39186 0.52249 0.6531 0.78374 0.91435 1.04497 1.1756 1.30621 1.43684 1.56746 1.69809 1.8287 1.95932 2.08995 2.22057 2.3512 2.48181 2.61243 2.74306 2.87367 3.0043 3.13492 3.26555 3.39616 3.52678 3.65741 3.78802 3.91866 4.04927 4.1799 4.31052 4.44113 4.57176 4.70238 4.83301 4.96362 5.09425 5.22487 5.35548 5.48611 5.61673 5.74736 5.87798 6.0086 6.13922 6.26984 6.40047 6.53108 6.66171 6.79233 6.92296 7.05357 7.18419 7.31482 7.44543 7.57607 7.70668 7.8373 7.96793 8.09854 8.22917 8.35979 8.49042 8.62103 8.75165 8.88228 9.0129 9.14352 9.27414 9.40477 9.53539 9.666 h 0.13063 0.13062 0.13063 0.13061 0.13063 0.13062 0.13061 0.13063 0.13062 0.13063 0.13061 0.13063 0.13062 0.13061 0.13064 0.13061 0.13063 0.13062 0.13063 0.13061 0.13062 0.13063 0.13061 0.13063 0.13062 0.13061 0.13064 l 0.13061,7e-5 0.13063,4.6e-4 0.13062,0.00142 0.13063,0.00308 0.13061,0.00556 0.13062,0.00908 0.13063,0.01387 0.13061,0.02 0.13065,0.02754 0.13061,0.03663 0.13063,0.04739 0.13062,0.06 0.13061,0.07452 0.13063,0.09096 0.13062,0.10934 0.13063,0.12969 0.13062,0.15188 0.13062,0.17586 0.13062,0.20148 0.13062,0.22858 0.13063,0.2571 0.13061,0.28682 0.13063,0.31769 0.13062,0.34939 0.13063,0.38187 0.13061,0.41483 0.13062,0.44806 0.13063,0.48132 0.13061,0.51434 0.13064,0.54686 0.13061,0.57863 0.13063,0.60935 0.13062,0.6389 0.13061,0.66696 0.13063,0.69342 0.13062,0.71805 0.13063,0.74067 0.13061,0.76113 0.13062,0.77926 0.13063,0.79495 0.13062,0.80802 0.13062,0.81841 0.13062,0.82609 0.13063,0.831 0.13062,0.83314 0.13061,0.83258 0.13063,0.82933 0.13062,0.8235 0.13063,0.81513 0.13061,0.80438 0.13063,0.79137 0.13062,0.77621 0.13061,0.7591 0.13063,0.7402 0.13062,0.7197 0.13063,0.69786 0.13061,0.67485 0.13064,0.65098 0.13061,0.62642 0.13061,0.6014 0.13064,0.57617 0.13061,0.55095 0.13063,0.52594 0.13062,0.50131 0.13063,0.47728 0.13061,0.45404 0.13062,0.43174 0.13063,0.41054 0.13061,0.3906 0.13063,0.37196 0.13062,0.35478 0.13063,0.33909 0.13062,0.3249 0.13061,0.31232 0.13063,0.30121 0.13062,0.29162 0.13063,0.2835 0.13061,0.27673 0.13062,0.27127 0.13063,0.26698 0.13061,0.26378 0.13064,0.26145 0.13061,0.25987 0.13063,0.2589 0.13061,0.25825 0.13062,0.25789 0.13063,0.25746 0.13062,0.25685 0.13063,0.25587 0.13061,0.25426 0.13063,0.25191 0.13061,0.2486 0.13062,0.24415 0.13063,0.23844 0.13062,0.23126 0.13063,0.22255 0.13061,0.21214 0.13063,0.19992 0.13062,0.18588 0.13061,0.16989 0.13063,0.15203 0.13062,0.13215 0.13063,0.11037 0.13062,0.08669 0.13063,0.06118 0.13061,0.03391 0.13062,0.005 0.13063,-0.02544 0.13061,-0.05728 0.13063,-0.09035 0.13062,-0.12447 0.13063,-0.15943 0.13061,-0.19509 0.13062,-0.2312 0.13063,-0.26748 0.13061,-0.30382 0.13064,-0.33992 0.13063,-0.37556 0.13061,-0.41056 0.13063,-0.44464 0.13062,-0.47763 0.13063,-0.50931 0.13062,-0.53949 0.13062,-0.56797 0.13062,-0.59464 0.13061,-0.61932 0.13063,-0.64185 0.13062,-0.66214 0.13063,-0.68016 0.13062,-0.69577 0.13063,-0.70897 0.13061,-0.71974 0.13061,-0.72803 0.13064,-0.73395 0.13061,-0.73748 0.13063,-0.7387 0.13062,-0.73773 0.13063,-0.73463 0.13061,-0.72957 0.13062,-0.72267 0.13063,-0.71407 0.13061,-0.70396 0.13063,-0.69254 0.13062,-0.67996 0.13063,-0.66643 0.13062,-0.65214 0.13061,-0.63733 0.13063,-0.62213 0.13062,-0.60677 0.13063,-0.59143 0.13061,-0.57633 0.13063,-0.5616 0.13062,-0.54737 0.13061,-0.53388 0.13064,-0.52119 0.13061,-0.50943 0.13063,-0.49872 0.13061,-0.48911 0.13062,-0.48062 0.13063,-0.47339 0.13062,-0.46735 0.13063,-0.46253 0.13061,-0.45891 0.13063,-0.45641 0.13061,-0.45501 0.13062,-0.45458 0.13063,-0.45508 0.13062,-0.45633 0.13063,-0.45822 0.13061,-0.46063 0.13063,-0.46336 0.13062,-0.4663 0.13061,-0.4692 0.13063,-0.47197 0.13062,-0.47435 0.13063,-0.47622 0.13062,-0.47735 0.13063,-0.47762 0.13061,-0.47679 0.13062,-0.47479 0.13063,-0.47139 0.13061,-0.46645 0.13063,-0.45994 0.13062,-0.45163 0.13063,-0.44153 0.13061,-0.42947 0.13062,-0.41548 0.13063,-0.3995 0.13062,-0.3815 0.13063,-0.36145 0.13061,-0.33949 0.13063,-0.31557 0.13062,-0.28976 0.13061,-0.26224 0.13063,-0.233 0.13062,-0.20225 0.13063,-0.1701 0.13061,-0.13671 0.13062,-0.10225 0.13063,-0.0669 0.13061,-0.03085 0.13063,0.00568 0.13062,0.04251 0.13063,0.07943 0.13062,0.11623 0.13061,0.15268 0.13063,0.1886 0.13062,0.22377 0.13063,0.25803 0.13061,0.29116 0.13063,0.323 0.13062,0.35342 0.13061,0.38225 0.13063,0.40937 0.13062,0.43466 0.13063,0.45802 0.13061,0.47945 0.13064,0.49879 0.13061,0.51607 0.13062,0.53131 0.13063,0.54446 0.13061,0.55556 0.13063,0.56468 0.13062,0.57188 0.13063,0.57722 0.13061,0.58084 0.13063,0.58282 0.13064,0.58332 0.13061,0.58249 0.13063,0.58039 0.13062,0.57734 0.13063,0.57336 0.13061,0.56868 0.13062,0.56349 0.13063,0.55792 0.13061,0.55216 0.13063,0.54639 0.13061,0.54071 0.13062,0.53535 0.13063,0.5304 0.13062,0.526 0.13063,0.52226 0.13061,0.5193 0.13063,0.51718 0.13062,0.51596 0.13062,0.51575 0.13062,0.5165 0.13062,0.51829 0.13063,0.52104 0.13062,0.52481 0.13063,0.52954 0.13061,0.53512 0.13062,0.54148 0.13063,0.5486 0.13061,0.55626 0.13063,0.56447 0.13062,0.57297 0.13063,0.58168 0.13061,0.59044 0.13062,0.59909 0.13063,0.60743 0.13062,0.61538 0.13063,0.62266 0.13061,0.62917 0.13063,0.63474 0.13062,0.63917 0.13061,0.64236 0.13063,0.64415 0.13062,0.64437 0.13063,0.64295 0.13061,0.63976 0.13063,0.63471 0.13062,0.6277 0.13061,0.61871 0.13064,0.60771 0.13061,0.59464 0.13063,0.57949 0.13062,0.56234 0.13061,0.54315 0.13063,0.52202 0.13062,0.49902 0.13063,0.47425 0.13061,0.44776 0.13063,0.41974 0.13062,0.3903 0.13061,0.35961 0.13063,0.32776 0.13062,0.29501 0.13063,0.26151 0.13062,0.22741 0.13063,0.19294 0.13061,0.15826 0.13062,0.1236 0.13063,0.08908 0.13061,0.05496 0.13063,0.02138 0.13062,-0.01149 0.13063,-0.04352 0.13061,-0.07448 0.13062,-0.10429 0.13063,-0.13284 0.13062,-0.15996 0.13062,-0.18566 0.13062,-0.20974 0.13063,-0.23227 0.13062,-0.25312 0.13061,-0.27227 0.13063,-0.28978 0.13062,-0.30564 0.13063,-0.31986 0.13062,-0.33251 0.13062,-0.34368 0.13062,-0.35337 0.13061,-0.36176 0.13063,-0.36894 0.13062,-0.37497 0.13063,-0.38007 0.13062,-0.3843 0.13061,-0.38784 0.13063,-0.39082 0.13061,-0.3934 0.13064,-0.39571 0.13061,-0.39792 0.13063,-0.40014 0.13062,-0.40257 0.13061,-0.40525 0.13063,-0.40839 0.13062,-0.41204 0.13063,-0.41632 0.13061,-0.42136 0.13063,-0.42716 0.13062,-0.43379 0.13062,-0.44136 0.13063,-0.44983 0.13061,-0.45923 0.13065,-0.46954 0.13061,-0.48074 0.13063,-0.49283 0.13062,-0.50569 0.13061,-0.51929 0.13063,-0.53351 0.13062,-0.54826 0.13063,-0.56346 0.13061,-0.57892 0.13063,-0.59458 0.13062,-0.61019 0.13062,-0.62574 0.13063,-0.64094 0.13061,-0.65572 0.13063,-0.66986 0.13062,-0.68324 0.13062,-0.69571 0.13062,-0.70709 0.13062,-0.71723 0.13063,-0.726 0.13061,-0.7333 0.13063,-0.73896 0.13062,-0.74287 0.13061,-0.74501 0.13063,-0.74524 0.13062,-0.74348 0.13063,-0.73975 0.13062,-0.73396 0.13063,-0.72614 0.13061,-0.71625 0.13062,-0.70436 0.13063,-0.69047 0.13061,-0.67465 0.13063,-0.65699 0.13062,-0.63755 0.13063,-0.61646 0.13061,-0.59381 0.13062,-0.56975 0.13063,-0.54439 0.13062,-0.51791 0.13063,-0.49048 0.13061,-0.4622 0.13063,-0.43331 0.13062,-0.4039 0.13061,-0.3742 0.13063,-0.34439 0.13062,-0.31458 0.13063,-0.28496 0.13062,-0.25571 0.13062,-0.2269 0.13062,-0.19877 0.13061,-0.17137 0.13063,-0.14485 0.13062,-0.11931 0.13063,-0.0948 0.13062,-0.07147 0.13063,-0.04931 0.13061,-0.02836 0.13061,-0.0087 0.13064,0.00972 0.13061,0.02686 0.13063,0.04278 0.13062,0.0575 0.13061,0.07106 0.13063,0.08357 0.13062,0.09505 0.13063,0.10562 0.13061,0.11538 0.13064,0.12449 0.13061,0.13293 0.13062,0.14099 0.13063,0.14864 0.13061,0.15614 0.13063,0.16353 0.13062,0.17098 0.13063,0.1786 0.13061,0.1865 0.13062,0.19483 0.13063,0.20366 0.13061,0.21313 0.13064,0.22327 0.13061,0.23419 0.13063,0.24597 0.13062,0.25863 0.13061,0.27222 0.13063,0.28677 0.13062,0.30221 0.13063,0.31868 0.13061,0.33602 0.13063,0.35426 0.13061,0.3733 0.13062,0.39313 0.13063,0.41359 0.13062,0.43466 0.13063,0.45618 0.13061,0.47806 0.13063,0.50015 0.13062,0.52234 0.13062,0.54446 0.13062,0.56641 0.13062,0.58795 0.13063,0.60901 0.13062,0.62942 0.13061,0.64902 0.13063,0.66767 0.13062,0.68518 0.13063,0.70147 0.13061,0.71642 0.13063,0.72986 0.13063,0.7417 0.13062,0.75189 0.13063,0.76027 0.13062,0.76683 0.13063,0.77149 0.13061,0.77421 0.13063,0.77498 0.13062,0.77379 0.13061,0.77062 0.13063,0.76554 0.13062,0.75854 0.13063,0.74974 0.13062,0.73914 0.13062,0.72684 0.13062,0.71296 0.13061,0.69761 0.13063,0.68087 0.13062,0.66288 0.13063,0.64379 0.13062,0.62374 0.13063,0.60285 0.13061,0.58128 0.13061,0.55918 0.13064,0.5367 0.13061,0.51399 0.13063,0.49119 0.13062,0.46842 0.13063,0.44585 0.13061,0.42355 0.13062,0.40171 0.13063,0.38035 0.13061,0.35962 0.13064,0.33959 0.13061,0.32028 0.13062,0.30183 0.13063,0.28424 0.13061,0.26749 0.13063,0.25166 0.13062,0.23673 0.13063,0.22262 0.13061,0.2094 0.13062,0.19696 0.13063,0.18526 0.13061,0.17425 0.13064,0.16379 0.13061,0.1539 0.13063,0.14436 0.13062,0.13518 0.13061,0.12618 0.13063,0.11729 0.13062,0.10834 0.13063,0.09931 0.13061,0.08997 0.13064,0.0803 0.13061,0.07017 0.13061,0.05945 0.13063,0.04808 0.13062,0.03593 0.13063,0.02297 0.13061,0.0091 0.13064,-0.0057 0.13061,-0.02153 0.13062,-0.03841 0.13062,-0.05632 0.13062,-0.07528 0.13063,-0.09529 0.13062,-0.11635 0.13063,-0.13837 0.13061,-0.16133 0.13062,-0.18516 0.13063,-0.2098 0.13061,-0.23512 0.13063,-0.26108 0.13062,-0.28749 0.13061,-0.3143 0.13064,-0.34135 0.13061,-0.36852 0.13063,-0.39564 0.13062,-0.42263 0.13063,-0.44926 0.13061,-0.47545 0.13062,-0.50105 0.13063,-0.52591 0.13061,-0.54985 0.13063,-0.5728 0.13062,-0.59459 0.13063,-0.61513 0.13061,-0.63432 0.13062,-0.65201 0.13063,-0.66817 0.13062,-0.68269 0.13063,-0.69551 0.13061,-0.70662 0.13063,-0.71594 0.13062,-0.72348 0.13061,-0.72921 0.13063,-0.73315 0.13062,-0.73535 0.13063,-0.73581 0.13061,-0.73459 0.13063,-0.73177 0.13062,-0.7274 0.13061,-0.72157 0.13063,-0.7144 0.13062,-0.70598 0.13063,-0.69641 0.13062,-0.68579 0.13061,-0.67432 0.13063,-0.66202 0.13063,-0.64911 0.13063,-0.63564 0.13062,-0.62182 0.13063,-0.60769 0.13061,-0.59342 0.13062,-0.57913 0.13063,-0.56486 0.13061,-0.55082 0.13064,-0.53703 0.13061,-0.52354 0.13063,-0.51052 0.13062,-0.49794 0.13061,-0.48588 0.13063,-0.47438 0.13062,-0.46349 0.13063,-0.45317 0.13061,-0.44341 0.13064,-0.43426 0.13061,-0.42563 0.13061,-0.41749 0.13063,-0.40986 0.13062,-0.40258 0.13063,-0.39562 0.13061,-0.3889 L 88.69225,10.225 88.82286,9.84914 88.95348,9.4798 89.0841,9.11713 89.21472,8.76134 89.34535,8.4128 89.47597,8.07195 89.6066,7.73932 89.73721,7.41557 89.86783,7.10147 89.99846,6.79782 90.12907,6.50552 90.2597,6.2256 90.39032,5.95905 90.52094,5.70702 90.65157,5.47061 90.78218,5.25102 90.91281,5.04947 91.04343,4.8671 l 0.13063,-0.16196 0.13061,-0.14038 0.13062,-0.11769 0.13063,-0.09386 0.13061,-0.06903 0.13063,-0.0432 0.13062,-0.01652 0.13063,0.01097 0.13061,0.03917 0.13062,0.0679 0.13063,0.09714 0.13062,0.12672 0.13063,0.15649 0.13061,0.18636 0.13063,0.21614 0.13062,0.24577 0.13061,0.27504 0.13063,0.30384 0.13062,0.33206 0.13063,0.35954 0.13061,0.38619 0.13063,0.41185 0.13062,0.43647 0.13061,0.45989 0.13064,0.48208 0.13061,0.50292 0.13063,0.52235 0.13062,0.54033 0.13063,0.55684 0.13061,0.57178 0.13062,0.5852 0.13063,0.59706 0.13061,0.60741 0.13063,0.61621 0.13062,0.62354 0.13061,0.62944 0.13063,0.63395 0.13062,0.63718 0.13063,0.63911 0.13062,0.63994 0.13063,0.63971 0.13061,0.63846 0.13062,0.6364 0.13063,0.63354 0.13061,0.63007 0.13063,0.62601 0.13062,0.6215 0.13063,0.6167 0.13062,0.61167 0.13061,0.60644 0.13063,0.60123 0.13061,0.59603 0.13063,0.59093 0.13062,0.58608 0.13063,0.58141 0.13062,0.57708 0.13061,0.57306 0.13063,0.56944 0.13061,0.56617 0.13064,0.56331 0.13061,0.56082 0.13063,0.55868 0.13062,0.55693 0.13061,0.55542 0.13063,0.5542 0.13062,0.55317 0.13063,0.55222 0.13063,0.55138 0.13063,0.55048 0.13062,0.5495 0.13061,0.54826 0.13063,0.54674 0.13062,0.54482 0.13063,0.54238 0.13061,0.5394 0.13062,0.53567 0.13063,0.53118 0.13061,0.5258 0.13063,0.51947 0.13062,0.5121 0.13063,0.50359 0.13062,0.49394 0.13061,0.48306 0.13063,0.47091 0.13062,0.45742 0.13063,0.44264 0.13061,0.42655 0.13063,0.40909 0.13062,0.39029 0.13062,0.37023 0.13062,0.34893 0.13062,0.32638 0.13063,0.30272 0.13061,0.27795 0.13063,0.25222 0.13062,0.22555 0.13062,0.19808 0.13063,0.16994 0.13061,0.14117 0.13063,0.11195 0.13062,0.08236 0.13063,0.05258 0.13061,0.02267 0.13062,-0.0072 0.13063,-0.03692 0.13061,-0.06637 0.13063,-0.09541 0.13062,-0.12393 0.13063,-0.15186 0.13061,-0.17901 0.13062,-0.2054 0.13063,-0.23082 0.13062,-0.2553 0.13063,-0.27868 0.13061,-0.30097 0.13062,-0.32208 0.13063,-0.342 0.13061,-0.3607 0.13063,-0.37816 0.13062,-0.39439 0.13063,-0.40936 0.13062,-0.42319 0.13061,-0.43577 0.13063,-0.44727 0.13061,-0.45769 0.13064,-0.46706 0.13061,-0.47546 0.13063,-0.483 0.13062,-0.48972 0.13061,-0.49572 0.13063,-0.50109 0.13061,-0.5059 0.13064,-0.51026 0.13061,-0.51422 0.13063,-0.51794 0.13062,-0.52143 0.13061,-0.52478 0.13063,-0.52815 0.13062,-0.53151 0.13063,-0.53496 0.13061,-0.53857 0.13064,-0.54239 0.13061,-0.54643 0.13062,-0.55077 0.13063,-0.55538 0.13061,-0.56031 0.13063,-0.56552 0.13062,-0.57103 0.13063,-0.5768 0.13061,-0.58287 0.13062,-0.58907 0.13063,-0.59548 0.13061,-0.60195 0.13064,-0.60849 0.13061,-0.61496 0.13062,-0.62132 0.13063,-0.62749 0.13061,-0.63336 0.13063,-0.63882 0.13062,-0.64385 0.13063,-0.6483 0.13061,-0.65205 0.13062,-0.65506 0.13063,-0.65723 0.13061,-0.65841 0.13063,-0.65863 0.13062,-0.6577 0.13063,-0.65561 0.13062,-0.6523 0.13061,-0.64766 0.13063,-0.64171 0.13062,-0.63435 0.13062,-0.62561 0.13062,-0.61544 0.13063,-0.60385 0.13062,-0.5908 0.13063,-0.57639 0.13063,-0.56056 0.13061,-0.54342 0.13063,-0.525 0.13062,-0.5053 0.13063,-0.48443 0.13062,-0.46253 0.13061,-0.43956 0.13063,-0.41572 0.13062,-0.39106 0.13063,-0.36564 0.13061,-0.33968 0.13063,-0.31318 0.13062,-0.28635 0.13061,-0.25922 0.13063,-0.23193 0.13062,-0.20462 0.13063,-0.17738 0.13062,-0.15033 0.13061,-0.12354 0.13063,-0.09717 0.13062,-0.07121 0.13063,-0.04584 0.13061,-0.0211 0.13063,0.00298 0.13062,0.02623 0.13061,0.04875 0.13063,0.0704 0.13061,0.09119 0.13064,0.11107 0.13061,0.13011 0.13063,0.14818 0.13062,0.16543 0.13061,0.18178 0.13063,0.19734 0.13062,0.21207 0.13063,0.22607 0.13061,0.23937 0.13064,0.25203 0.13061,0.26414 0.13062,0.27573 0.13063,0.2869 0.13061,0.29768 0.13063,0.30818 0.13062,0.31851 0.13063,0.32868 0.13061,0.33876 0.13062,0.34886 0.13063,0.35902 0.13061,0.36931 0.13064,0.37978 0.13061,0.39045 0.13063,0.4014 0.13062,0.41265 0.13061,0.42421 0.13063,0.43606 0.13062,0.44832 0.13063,0.46085 0.13061,0.4737 0.13062,0.48687 0.13063,0.5003 0.13061,0.51393 0.13063,0.52776 0.13062,0.54167 0.13063,0.55565 0.13062,0.56961 0.13061,0.58345 0.13063,0.59711 0.13062,0.61053 0.13062,0.62355 0.13062,0.63616 0.13063,0.64821 0.13062,0.65959 0.13061,0.67029 0.13063,0.68011 0.13062,0.68907 0.13063,0.69701 0.13061,0.70386 0.13063,0.70961 0.13062,0.71408 0.13062,0.7173 0.13063,0.7192 0.13061,0.71973 0.13063,0.71884 0.13062,0.71651 0.13063,0.71278 0.13061,0.70754 0.13062,0.70091 0.13063,0.69281 0.13061,0.68333 0.13063,0.67247 0.13062,0.6603 0.13063,0.64685 0.13062,0.63219 0.13061,0.61641 0.13063,0.59953 0.13062,0.58172 0.13063,0.56298 0.13061,0.54347 0.13062,0.52322 0.13063,0.50241 0.13062,0.48107 0.13062,0.45932 0.13062,0.43729 0.13063,0.41502 0.13061,0.39267 0.13062,0.3703 0.13063,0.34796 0.13062,0.32582 0.13064,0.30385 0.13061,0.28224 0.13064,0.26094 0.13061,0.24007 0.13062,0.21966 0.13063,0.19974 0.13061,0.18033 0.13063,0.16151 0.13062,0.14319 0.13063,0.12546 0.13061,0.10826 0.13062,0.09161 0.13063,0.07547 0.13062,0.05979 0.13063,0.04458 0.13061,0.02977 0.13063,0.01529 0.13062,0.0011 0.13061,-0.0128 0.13063,-0.02655 0.13062,-0.04017 0.13063,-0.05375 0.13061,-0.06731 0.13064,-0.08096 0.13061,-0.09474 0.13061,-0.1087 0.13063,-0.12292 0.13062,-0.13742 0.13063,-0.15223 0.13062,-0.16744 0.13061,-0.18309 0.13063,-0.1991 0.13062,-0.21559 0.13062,-0.23256 0.13062,-0.24995 0.13063,-0.2678 0.13062,-0.28611 0.13061,-0.30479 0.13063,-0.32389 0.13062,-0.34329 0.13063,-0.36298 0.13061,-0.38288 0.13063,-0.403 0.13062,-0.42316 0.13062,-0.44336 0.13063,-0.4635 0.13061,-0.48349 0.13063,-0.50324 0.13062,-0.52266 0.13063,-0.54168 0.13061,-0.56017 0.13062,-0.57806 0.13063,-0.59526 0.13061,-0.61168 0.13063,-0.62724 0.13062,-0.64182 0.13063,-0.65541 0.13062,-0.66788 0.13061,-0.67918 0.13063,-0.68929 0.13062,-0.69812 0.13063,-0.70564 0.13061,-0.71182 0.13063,-0.71663 0.13062,-0.72007 0.13062,-0.7221 0.13062,-0.72278 0.13062,-0.72208 0.13063,-0.72001 0.13061,-0.71668 0.13062,-0.71199 0.13063,-0.70614 0.13062,-0.69908 0.13063,-0.69091 0.13061,-0.68168 0.13063,-0.6715 0.13062,-0.66038 0.13061,-0.64846 0.13063,-0.63577 0.13062,-0.62246 0.13063,-0.60857 0.13061,-0.59416 0.13063,-0.57936 0.13062,-0.56427 0.13061,-0.54891 0.13064,-0.53337 0.13061,-0.51774 0.13063,-0.50211 0.13062,-0.48647 0.13063,-0.47093 0.13061,-0.45552 0.13062,-0.44027 0.13063,-0.42525 0.13061,-0.41046 0.13063,-0.39589 0.13062,-0.3816 0.13063,-0.36755 0.13062,-0.35377 0.13061,-0.34021 0.13063,-0.32691 0.13062,-0.31375 0.13063,-0.30081 0.13061,-0.28794 0.13063,-0.27517 0.13062,-0.26242 0.13061,-0.24967 0.13064,-0.23683 0.1306,-0.22387 0.13064,-0.21071 0.13063,-0.19735 0.13061,-0.18365 0.13063,-0.1696 0.13062,-0.15519 0.13063,-0.14028 0.13062,-0.12491 0.13062,-0.10901 0.13062,-0.09252 0.13062,-0.07543 0.13063,-0.05776 0.13061,-0.03944 0.13063,-0.02048 0.13062,-8.5e-4 0.13063,0.01933 0.13061,0.04017 0.13062,0.06162 0.13063,0.08357 0.13061,0.10608 0.13063,0.12904 0.13062,0.15241 0.13063,0.17613 0.13062,0.20015 0.13061,0.22437 0.13063,0.24874 0.13062,0.27315 0.13063,0.29753 0.13061,0.32178 0.13063,0.34584 0.13062,0.3696 0.13062,0.39297 0.13062,0.41584 0.13062,0.43816 0.13063,0.45983 0.13061,0.48075 0.13064,0.50087 0.13061,0.52011 0.13062,0.53839 0.13063,0.55566 0.13061,0.57186 0.13063,0.58693 0.13062,0.60087 0.13061,0.6136 0.13063,0.62514 0.13062,0.63542 0.13063,0.6445 0.13061,0.65233 0.13063,0.65895 0.13062,0.66434 0.13061,0.66859 0.13064,0.67163 0.13061,0.6736 0.13063,0.67452 0.13062,0.67438 0.13063,0.67329 0.13061,0.67131 0.13062,0.6685 0.13063,0.6649 0.13061,0.66062 0.13063,0.6557 0.13062,0.65018 0.13063,0.64421 0.13062,0.63777 0.13061,0.63101 0.13063,0.6239 0.13062,0.61658 0.13063,0.60907 0.13061,0.60142 0.13063,0.59365 0.13062,0.58586 0.13061,0.57802 0.13064,0.5702 0.13061,0.5624 0.13063,0.55462 0.13061,0.54691 0.13063,0.5392 0.13062,0.53155 0.13061,0.5239 0.13064,0.51625 0.13061,0.50856 0.13063,0.50084 0.13061,0.49296 0.13062,0.48499 0.13063,0.47681 0.13062,0.46841 0.13063,0.45969 0.13061,0.45065 0.13063,0.44122 0.13062,0.43134 0.13061,0.42097 0.13063,0.41005 0.13062,0.3985 0.13063,0.38635 0.13062,0.37349 0.13063,0.35993 0.13061,0.34558 0.13062,0.33046 0.13063,0.31453 0.13061,0.29778 0.13063,0.28023 0.13062,0.26181 0.13063,0.24259 0.13061,0.22255 0.13062,0.20175 0.13063,0.18015 0.13061,0.15785 0.13063,0.13487 0.13062,0.11125 0.13063,0.08705 0.13062,0.06235 0.13063,0.0372 0.13063,0.01167 0.13061,-0.01414 0.13063,-0.04018 0.13062,-0.06637 0.13063,-0.09259 0.13061,-0.11879 0.13062,-0.14487 0.13063,-0.17073 0.13061,-0.19629 0.13063,-0.22151 0.13062,-0.24623 0.13061,-0.27046 0.13064,-0.29406 0.13061,-0.31698 0.13063,-0.33919 0.13062,-0.3606 0.13063,-0.38114 0.13061,-0.40081 0.13062,-0.41954 0.13063,-0.43731 0.13061,-0.45411 0.13063,-0.46992 0.13062,-0.48471 0.13063,-0.49848 0.13062,-0.51126 0.13061,-0.52305 0.13063,-0.5339 0.13062,-0.54374 0.13063,-0.55272 0.13061,-0.56082 0.13063,-0.56805 0.13062,-0.57454 0.13061,-0.58026 0.13064,-0.58527 0.13061,-0.58968 0.13063,-0.59347 0.13061,-0.59675 0.13063,-0.59956 0.13062,-0.60193 0.13062,-0.60392 0.13063,-0.60564 0.13061,-0.60702 0.13063,-0.60822 0.13061,-0.60921 0.13064,-0.61003 0.13061,-0.61072 0.13062,-0.61129 0.13063,-0.61182 0.13061,-0.61223 0.13063,-0.61256 0.13062,-0.61283 0.13061,-0.61303 0.13063,-0.61315 0.13062,-0.61313 0.13063,-0.61297 0.13062,-0.61269 0.13063,-0.61218 0.13061,-0.61144 0.13062,-0.61043 0.13063,-0.60906 0.13061,-0.60736 0.13063,-0.60524 0.13062,-0.6026 0.13063,-0.59946 0.13061,-0.59572 0.13062,-0.59137 0.13063,-0.58632 0.13061,-0.58052 0.13064,-0.57395 0.13061,-0.56654 0.13063,-0.55828 0.13062,-0.54911 0.13061,-0.53901 0.13063,-0.52796 0.13062,-0.51593 0.13063,-0.50291 0.13061,-0.48892 0.13063,-0.47391 0.13062,-0.45795 0.13061,-0.44099 0.13063,-0.42313 0.13062,-0.40431 0.13063,-0.38463 0.13062,-0.36411 0.13061,-0.34281 0.13063,-0.32077 0.13062,-0.29804 0.13063,-0.2747 0.13061,-0.25084 0.13063,-0.22649 0.13062,-0.20174 0.13061,-0.17666 0.13063,-0.15136 0.13062,-0.12588 0.13063,-0.10031 0.13061,-0.07477 0.13063,-0.04927 0.13062,-0.02394 0.13062,0.00119 0.13063,0.02598 0.13061,0.05048 0.13063,0.07451 0.13062,0.09805 0.13063,0.1211 0.13061,0.14354 0.13062,0.16536 0.13063,0.18656 0.13062,0.20705 0.13062,0.22684 0.13063,0.24594 0.13064,0.26428 0.13061,0.28191 0.13062,0.29883 0.13063,0.31501 0.13061,0.3305 0.13063,0.34532 0.13061,0.35948 0.13064,0.37301 0.13061,0.38596 0.13062,0.39836 0.13063,0.41023 0.13061,0.42164 0.13063,0.4326 0.13062,0.44317 0.13061,0.45339 0.13063,0.4633 0.13062,0.47293 0.13063,0.48236 0.13062,0.49156 0.13063,0.5006 0.13061,0.50951 0.13062,0.51832 0.13063,0.527 0.13061,0.53562 0.13063,0.54418 0.13062,0.55266 0.13063,0.56108 0.13061,0.56942 0.13062,0.57769 0.13063,0.58586 0.13062,0.59387 0.13063,0.60176 0.13061,0.60946 0.13063,0.61694 0.13062,0.62413 0.13061,0.63103 0.13063,0.63757 0.13062,0.64369 0.13063,0.64937 0.13061,0.65451 0.13063,0.6591 0.13062,0.66303 0.13061,0.66632 0.13063,0.66885 0.13062,0.67059 0.13063,0.67151 0.13062,0.67151 0.13062,0.67062 0.13062,0.66875 0.13062,0.66588 0.13063,0.66199 0.13061,0.65701 0.13063,0.651 0.13062,0.64388 0.13061,0.63568 0.13063,0.62639 0.13062,0.61599 0.13063,0.60457 0.13061,0.59206 0.13064,0.57853 0.13061,0.56403 0.13062,0.54857 0.13063,0.53218 0.13061,0.51495 0.13063,0.49691 0.13062,0.47812 0.13063,0.45863 0.13061,0.43852 0.13062,0.41785 0.13063,0.3967 0.13062,0.37512 0.13062,0.35321 0.13062,0.33099 0.13063,0.30858 0.13062,0.28604 0.13061,0.26341 0.13063,0.2408 0.13062,0.21819 0.13063,0.19575 0.13061,0.17345 0.13063,0.15135 0.13062,0.12952 0.13061,0.108 0.13063,0.08679 0.13062,0.06595 0.13063,0.04552 0.13061,0.02545 0.13063,0.0058 0.13062,-0.01339 0.13061,-0.0322 0.13064,-0.05056 0.13061,-0.06853 0.13063,-0.08611 0.13062,-0.1033 0.13061,-0.12013 0.13063,-0.13663 0.13062,-0.15283 0.13063,-0.16873 0.13061,-0.18442 0.13063,-0.19987 0.13062,-0.21518 0.13061,-0.23029 0.13064,-0.2453 0.13061,-0.26022 0.13063,-0.27511 0.13062,-0.28991 0.13063,-0.30475 0.13061,-0.31959 0.13063,-0.33446 0.13063,-0.34937 0.13062,-0.3643 0.13063,-0.37932 0.13061,-0.39438 0.13063,-0.40945 0.13062,-0.42459 0.13061,-0.43971 0.13064,-0.45484 0.13061,-0.46995 0.13063,-0.48499 0.13062,-0.49988 0.13062,-0.51468 0.13062,-0.52928 0.13062,-0.54362 0.13063,-0.55771 0.13061,-0.57144 0.13063,-0.58478 0.13062,-0.59766 0.13063,-0.61006 0.13061,-0.62187 0.13062,-0.63304 0.13063,-0.64357 0.13062,-0.65334 0.13063,-0.66232 0.13061,-0.67044 0.13062,-0.6777 0.13063,-0.68404 0.13061,-0.68938 0.13063,-0.69371 0.13062,-0.69699 0.13063,-0.69925 0.13061,-0.70039 0.13062,-0.70043 0.13063,-0.69937 0.13062,-0.69719 0.13062,-0.69392 0.13062,-0.68955 0.13063,-0.68411 0.13062,-0.67757 0.13061,-0.67002 0.13063,-0.66148 0.13062,-0.65195 0.13063,-0.6415 0.13062,-0.6302 0.13062,-0.61801 0.13062,-0.60511 0.13061,-0.59144 0.13063,-0.57712 0.13062,-0.56218 0.13063,-0.54671 0.13061,-0.53074 0.13064,-0.51433 0.13061,-0.49758 0.13061,-0.48048 0.13064,-0.46313 0.13061,-0.44559 0.13063,-0.42789 0.13062,-0.41009 0.13063,-0.3922 0.13061,-0.3743 0.13062,-0.35643 0.13063,-0.33856 0.13061,-0.32079 0.13063,-0.3031 0.13062,-0.2855 0.13061,-0.26807 0.13064,-0.2507 0.13061,-0.23349 0.13063,-0.21641 0.13062,-0.19944 0.13063,-0.18259 0.13061,-0.1658 0.13062,-0.14911 0.13063,-0.1325 0.13061,-0.1159 0.13064,-0.09931 0.13061,-0.08272 0.13063,-0.0661 0.13061,-0.04938 0.13062,-0.03259 0.13063,-0.01569 0.13062,0.00137 0.13063,0.01859 0.13061,0.03599 0.13063,0.05362 0.13061,0.07146 0.13062,0.08951 0.13063,0.10779 0.13062,0.12635 0.13063,0.14513 0.13061,0.16417 0.13063,0.1834 0.13062,0.20285 0.13061,0.2225 0.13063,0.24231 0.13062,0.26229 0.13063,0.28233 0.13062,0.30246 0.13063,0.32261 0.13061,0.34274 0.13062,0.36281 0.13063,0.38274 0.13061,0.40253 0.13063,0.42204 0.13062,0.4413 0.13061,0.4602 0.13063,0.47867 0.13062,0.49671 0.13065,0.51417 0.13061,0.53109 0.13063,0.54734 0.13062,0.5629 0.13061,0.57771 0.13063,0.59172 0.13062,0.60491 0.13063,0.61717 0.13062,0.62854 0.13062,0.63894 0.13062,0.64837 0.13061,0.65676 0.13063,0.66417 0.13062,0.67054 0.13063,0.67585 0.13062,0.68013 0.13063,0.68337 0.13061,0.68558 0.13061,0.68678 0.13064,0.68698 0.13061,0.68622 0.13063,0.68452 0.13062,0.6819 0.13063,0.67841 0.13061,0.67412 0.13062,0.669 0.13063,0.66313 0.13061,0.65658 0.13063,0.64936 0.13062,0.64154 0.13063,0.63318 0.13062,0.62426 0.13061,0.61492 0.13063,0.6051 0.13062,0.59496 0.13063,0.58446 0.13061,0.57364 0.13062,0.56257 0.13063,0.55129 0.13061,0.53976 0.13064,0.52808 0.13061,0.51622 0.13063,0.50426 0.13061,0.49209 0.13062,0.47987 0.13063,0.4675 0.13062,0.45504 0.13063,0.4424 0.13061,0.42968 0.13063,0.41681 0.13061,0.40378 0.13062,0.39059 0.13063,0.37719 0.13062,0.3636 0.13063,0.34976 0.13061,0.33566 0.13063,0.32132 0.13062,0.30664 0.13062,0.29162 0.13062,0.27626 0.13062,0.26054 0.13063,0.24438 0.13062,0.22785 0.13063,0.21086 0.13061,0.19345 0.13062,0.17555 0.13063,0.15722 0.13061,0.1384 0.13063,0.11912 0.13062,0.09941 0.13063,0.07924 0.13061,0.05862 0.13062,0.0376 0.13063,0.01621 0.13062,-0.0056 0.13063,-0.02766 0.13061,-0.05005 0.13062,-0.07268 0.13063,-0.0955 0.13061,-0.11852 0.13063,-0.14163 0.13062,-0.16478 0.13063,-0.18793 0.13061,-0.21102 0.13062,-0.234 0.13063,-0.2568 0.13061,-0.27936 0.13064,-0.30161 0.13061,-0.32351 0.13063,-0.345 0.13062,-0.36603 0.13061,-0.38649 0.13063,-0.40641 0.13062,-0.42568 0.13063,-0.44429 0.13061,-0.46219 0.13063,-0.47933 0.13062,-0.49566 0.13061,-0.51122 0.13063,-0.52589 0.13062,-0.53975 0.13063,-0.55271 0.13062,-0.56479 0.13063,-0.57595 0.13061,-0.58625 0.13062,-0.59565 0.13063,-0.60418 0.13061,-0.61184 0.13063,-0.61866 0.13063,-0.62461 0.13063,-0.62979 0.13062,-0.6342 0.13061,-0.63784 0.13064,-0.64076 0.13061,-0.643 0.13063,-0.64458 0.13062,-0.64556 0.13061,-0.64592 0.13063,-0.64576 0.13062,-0.6451 0.13063,-0.64395 0.13061,-0.64232 0.13064,-0.64031 0.13061,-0.6379 0.13061,-0.63514 0.13063,-0.63198 0.13062,-0.62858 0.13063,-0.62481 0.13061,-0.62077 0.13063,-0.61647 0.13062,-0.61185 0.13062,-0.60698 0.13062,-0.60185 0.13062,-0.59641 0.13063,-0.5907 0.13062,-0.58467 0.13063,-0.57835 0.13061,-0.57169 0.13062,-0.56466 0.13063,-0.55732 0.13061,-0.54951 0.13063,-0.54132 0.13062,-0.53269 0.13063,-0.52359 0.13061,-0.51397 0.13062,-0.50385 0.13063,-0.49319 0.13062,-0.48195 0.13063,-0.4701 0.13061,-0.45767 0.13063,-0.44459 0.13062,-0.43088 0.13061,-0.41649 0.13063,-0.40146 0.13062,-0.38572 0.13063,-0.36937 0.13061,-0.3523 0.13062,-0.33461 0.13063,-0.31624 0.13062,-0.29724 0.13063,-0.27765 0.13061,-0.25746 0.13063,-0.23669 0.13062,-0.21544 0.13061,-0.19367 0.13063,-0.17146 0.13062,-0.14885 0.13063,-0.12587 0.13061,-0.1026 0.13063,-0.07904 0.13062,-0.05534 0.13061,-0.03144 0.13063,-0.00747 0.13062,0.01654 0.13063,0.04049 0.13062,0.06438 0.13063,0.08814 0.13061,0.1117 0.13062,0.135 0.13063,0.15799 0.13061,0.18065 0.13063,0.20288 0.13062,0.22468 0.13063,0.24602 0.13061,0.26682 0.13062,0.28706 0.13063,0.3067 0.13062,0.32576 0.13063,0.34418 0.13061,0.36196 0.13063,0.37904 0.13062,0.39549 0.13061,0.41124 0.13063,0.42636 0.13062,0.44075 0.13063,0.45453 0.13062,0.46762 0.13061,0.48007 0.13063,0.49192 0.13061,0.50315 0.13063,0.51377 0.13062,0.52386 0.13063,0.53337 0.13062,0.54239 0.13061,0.55091 0.13063,0.55894 0.13061,0.56656 0.13064,0.5737 0.13061,0.58046 0.13063,0.58684 0.13062,0.59285 0.13061,0.59849 0.13063,0.60382 0.13062,0.6088 0.13063,0.61347 0.13061,0.61785 0.13063,0.62187 0.13062,0.6256 0.13063,0.62901 0.13063,0.6321 0.13062,0.63482 0.13063,0.63724 0.13061,0.63924 0.13063,0.6409 0.13062,0.64212 0.13061,0.64293 0.13063,0.64325 0.13062,0.64311 0.13063,0.64244 0.13061,0.64125 0.13063,0.63948 0.13062,0.6371 0.13062,0.63408 0.13063,0.63041 0.13061,0.62607 0.13063,0.62101 0.13062,0.61517 0.13061,0.60861 0.13063,0.60127 0.13062,0.59311 0.13063,0.58417 0.13061,0.5744 0.13063,0.56379 0.13062,0.55238 0.13061,0.54013 0.13064,0.52707 0.13061,0.51318 0.13063,0.49851 0.13062,0.48307 0.13063,0.46685 0.13061,0.44993 0.13062,0.4323 0.13063,0.41402 0.13061,0.39508 0.13063,0.37558 0.13062,0.35553 0.13063,0.33497 0.13061,0.31397 0.13062,0.29258 0.13063,0.27082 0.13062,0.24878 0.13063,0.22648 0.13061,0.20398 0.13063,0.18135 0.13062,0.15866 0.13061,0.13587 0.13063,0.11314 0.13062,0.09044 0.13063,0.06787 0.13062,0.04544 0.13062,0.02318 0.13062,0.0012 0.13061,-0.02062 0.13063,-0.04208 0.13062,-0.06325 0.13063,-0.08406 0.13062,-0.10451 0.13061,-0.12458 0.13063,-0.14426 0.13061,-0.16354 0.13064,-0.18242 0.13061,-0.20087 0.13063,-0.21893 0.13062,-0.23657 0.13061,-0.2538 0.13063,-0.27063 0.13062,-0.2871 0.13063,-0.30317 0.13061,-0.3189 0.13064,-0.33426 0.13061,-0.3493 0.13062,-0.36401 0.13063,-0.37845 0.13061,-0.39255 0.13063,-0.40642 0.13062,-0.42 0.13063,-0.43333 0.13061,-0.44643 0.13062,-0.45927 0.13063,-0.47191 0.13061,-0.48428 0.13064,-0.49646 0.13061,-0.50843 0.13063,-0.52011 0.13062,-0.53157 0.13061,-0.54278 0.13063,-0.55373 0.13062,-0.56436 0.13063,-0.57474 0.13061,-0.58473 0.13064,-0.59442 0.13061,-0.6037 0.13061,-0.61259 0.13063,-0.62104 0.13062,-0.62901 0.13063,-0.63649 0.13061,-0.64342 0.13062,-0.64978 0.13063,-0.65555 0.13062,-0.66066 0.13062,-0.6651 0.13062,-0.66882 0.13063,-0.67184 0.13062,-0.67406 0.13061,-0.67549 0.13063,-0.67612 0.13062,-0.67586 0.13063,-0.67479 0.13063,-0.6728 0.13063,-0.66994 0.13061,-0.66617 0.13062,-0.6615 0.13063,-0.6559 0.13062,-0.64941 0.13063,-0.64201 0.13061,-0.63373 0.13063,-0.62456 0.13062,-0.61452 0.13061,-0.60365 0.13063,-0.59196 0.13062,-0.5795 0.13063,-0.56629 0.13062,-0.5523 0.13062,-0.53769 0.13062,-0.5224 0.13061,-0.50652 0.13064,-0.49005 0.13061,-0.47308 0.13063,-0.45565 0.13062,-0.43775 0.13061,-0.41949 0.13063,-0.40089 0.13061,-0.38199 0.13064,-0.36282 0.13061,-0.34346 0.13063,-0.32391 0.13062,-0.30426 0.13061,-0.28449 0.13063,-0.26465 0.13062,-0.24481 0.13063,-0.22494 0.13061,-0.20513 0.13064,-0.18533 0.13061,-0.16564 0.13062,-0.14599 0.13063,-0.12648 0.13061,-0.10707 0.13063,-0.0878 0.13062,-0.06862 0.13063,-0.04959 0.13061,-0.03069 0.13062,-0.01191 0.13063,0.00671 0.13061,0.02524 0.13064,0.04365 0.13061,0.06195 0.13063,0.08014 0.13062,0.09825 0.13061,0.11631 0.13063,0.13423 0.13062,0.15213 0.13063,0.16996 0.13061,0.18775 0.13064,0.20549 0.13061,0.22318 0.13061,0.24082 0.13063,0.25846 0.13062,0.276 0.13063,0.29353 0.13061,0.31101 0.13062,0.3284 0.13063,0.3457 0.13062,0.36293 0.13062,0.38002 0.13062,0.39701 0.13063,0.4138 0.13062,0.4304 0.13061,0.44682 0.13063,0.46296 0.13062,0.47883 0.13063,0.49439 0.13061,0.50958 0.13063,0.52442 0.13062,0.53878 0.13061,0.55271 0.13064,0.56611 0.13061,0.579 0.13063,0.59126 0.13062,0.60295 0.13063,0.61392 0.13061,0.62425 0.13062,0.63384 0.13063,0.64267 0.13061,0.65068 0.13063,0.65793 0.13062,0.6643 0.13063,0.66983 0.13061,0.6745 0.13062,0.67826 0.13063,0.68111 0.13062,0.68307 0.13063,0.68411 0.13061,0.68427 0.13063,0.68348 0.13062,0.68181 0.13061,0.67926 0.13063,0.67583 0.13062,0.67154 0.13063,0.66643 0.13061,0.6605 0.13062,0.65378 0.13063,0.64632 0.13061,0.6381 0.13064,0.62922 0.13061,0.61967 0.13063,0.60947 0.13062,0.59871 0.13063,0.58737 0.13063,0.57551 0.13061,0.56318 0.13063,0.55038 0.13062,0.53719 0.13063,0.52357 0.13061,0.50968 0.13062,0.49535 0.13063,0.48084 0.13061,0.46597 0.13064,0.45093 0.13061,0.43563 0.13063,0.42012 0.13062,0.40445 0.13061,0.38859 0.13063,0.37257 0.13062,0.3564 0.13063,0.34009 0.13061,0.32366 0.13064,0.30705 0.13061,0.29034 0.13061,0.27349 0.13063,0.25648 0.13062,0.23935 0.13063,0.22208 0.13062,0.20462 0.13063,0.18702 0.13061,0.16929 0.13062,0.15132 0.13062,0.13319 0.13062,0.1149 0.13063,0.0964 0.13062,0.07772 0.13061,0.05884 0.13063,0.03974"
                           style="fill:none;stroke:#0571b0;stroke-width:1.49442;stroke-linecap:butt;stroke-linejoin:miter;stroke-miterlimit:10;stroke-dasharray:none;stroke-opacity:1"
                           id="path400" /></g></g></g><g
                     id="g402"><g
                       id="g404"
                       transform="translate(114.022,-24.253)"><g
                         id="g406"><g
                           id="g408"
                           transform="translate(-142.647,-5.811)"><text
                             transform="matrix(1,0,0,-1,142.647,5.811)"
                             style="font-variant:normal;font-weight:normal;font-size:9.96264px;font-family:LMSans10;-inkscape-font-specification:LMSans10-Regular;writing-mode:lr-tb;fill:#46413c;fill-opacity:1;fill-rule:nonzero;stroke:none"
                             id="text412"><tspan
                               x="0 3.596513 5.9775839 13.88792 21.628891 25.504358 29.320049"
                               y="0"
                               sodipodi:role="line"
                               id="tspan410">time(s)</tspan></text><g
                             id="g414"
                             transform="translate(142.647,5.811)" /></g></g><g
                         id="g416"
                         transform="translate(-114.022,24.253)" /></g></g><g
                     id="g418"><g
                       id="g420"
                       transform="rotate(90,-3.6655,-14.1665)"><g
                         id="g422"><g
                           id="g424"
                           transform="translate(-10.793,-19.563)"><text
                             transform="matrix(1,0,0,-1,10.793,19.563)"
                             style="font-variant:normal;font-weight:normal;font-size:9.96264px;font-family:LMSans10;-inkscape-font-specification:LMSans10-Regular;writing-mode:lr-tb;fill:#46413c;fill-opacity:1;fill-rule:nonzero;stroke:none"
                             id="text428"><tspan
                               x="0 5.1506848 7.5317559 11.347447 16.498133 18.879202 23.671232 28.094645 32.518059 40.428394 44.851807 50.002491 56.916561 60.79203 68.702362"
                               y="0"
                               sodipodi:role="line"
                               id="tspan426">displacement(m)</tspan></text><g
                             id="g430"
                             transform="translate(10.793,19.563)" /></g></g><g
                         id="g432"
                         transform="translate(17.832,10.501)" /></g></g></g></g><g
                 id="g434"
                 transform="translate(-28.625,-30.064)" /></g><g
               id="g436"
               transform="translate(28.625,30.064)" /></g><g
             id="g438" /><g
             id="g440" /></g></g></g></g></svg>
