<?xml version="1.0" encoding="UTF-8" standalone="no"?>
<!-- Created with Inkscape (http://www.inkscape.org/) -->

<svg
   version="1.1"
   id="svg2"
   xml:space="preserve"
   width="381.86133"
   height="194.99333"
   viewBox="0 0 381.86133 194.99333"
   sodipodi:docname="fishtail_tf1_large.pdf"
   xmlns:inkscape="http://www.inkscape.org/namespaces/inkscape"
   xmlns:sodipodi="http://sodipodi.sourceforge.net/DTD/sodipodi-0.dtd"
   xmlns="http://www.w3.org/2000/svg"
   xmlns:svg="http://www.w3.org/2000/svg"><defs
     id="defs6"><clipPath
       clipPathUnits="userSpaceOnUse"
       id="clipPath356"><path
         d="m -114.29298,-137.15327 h 228.58596 v 114.2944 h -228.58596 z"
         id="path354" /></clipPath></defs><sodipodi:namedview
     id="namedview4"
     pagecolor="#ffffff"
     bordercolor="#666666"
     borderopacity="1.0"
     inkscape:pageshadow="2"
     inkscape:pageopacity="0.0"
     inkscape:pagecheckerboard="0" /><g
     id="g8"
     inkscape:groupmode="layer"
     inkscape:label="fishtail_tf1_large"
     transform="matrix(1.3333333,0,0,-1.3333333,0,194.99333)"><g
       id="g10"
       transform="translate(47.277,31.753)"><g
         id="g12"><g
           id="g14" /><g
           id="g16"><g
             id="g18" /><g
             id="g20" /><g
             id="g22"><g
               id="g24" /></g><g
             id="g26" /><g
             id="g28" /><g
             id="g30" /><g
             id="g32" /><g
             id="g34"
             transform="translate(-47.277,-31.753)"><g
               id="g36"
               transform="translate(161.568,168.904)"><g
                 id="g38"><g
                   id="g40" /><g
                   id="g42"><g
                     id="g44"><g
                       id="g46"><g
                         id="g48"><path
                           d="m -114.29298,-137.15327 v 4.25254 m 28.57324,-4.25254 v 4.25254 m 28.57326,-4.25254 v 4.25254 m 28.57324,-4.25254 v 4.25254 M 0,-137.15327 v 4.25254 m 28.57324,-4.25254 v 4.25254 m 28.57324,-4.25254 v 4.25254 m 28.57326,-4.25254 v 4.25254 m 28.57324,-4.25254 v 4.25254 m -228.58596,110.04186 v -4.25255 m 28.57324,4.25255 v -4.25255 m 28.57326,4.25255 v -4.25255 m 28.57324,4.25255 v -4.25255 M 0,-22.85887 v -4.25255 m 28.57324,4.25255 v -4.25255 m 28.57324,4.25255 v -4.25255 m 28.57326,4.25255 v -4.25255 m 28.57324,4.25255 v -4.25255"
                           style="fill:none;stroke:#808080;stroke-width:0.19925;stroke-linecap:butt;stroke-linejoin:miter;stroke-miterlimit:10;stroke-dasharray:none;stroke-opacity:1"
                           id="path50" /></g></g><g
                       id="g52"><g
                         id="g54"><path
                           d="m -114.29298,-137.15327 h 4.24806 m -4.24806,34.28831 h 4.24806 m -4.24806,34.28833 h 4.24806 m -4.24806,34.28832 h 4.24806 m 224.3379,-102.86496 h -4.24806 m 4.24806,34.28831 h -4.24806 m 4.24806,34.28833 h -4.24806 m 4.24806,34.28832 h -4.24806"
                           style="fill:none;stroke:#808080;stroke-width:0.19925;stroke-linecap:butt;stroke-linejoin:miter;stroke-miterlimit:10;stroke-dasharray:none;stroke-opacity:1"
                           id="path56" /></g></g><path
                       d="m -114.29298,-137.15327 v 114.2944 h 228.58596 v -114.2944 z"
                       style="fill:none;stroke:#46413c;stroke-width:0.3985;stroke-linecap:butt;stroke-linejoin:miter;stroke-miterlimit:10;stroke-dasharray:none;stroke-opacity:1"
                       id="path58" /><g
                       id="g60"><g
                         id="g62"
                         transform="translate(-124.62,-148.781)"><g
                           id="g64"><g
                             id="g66"
                             transform="translate(-36.948,-20.123)"><text
                               transform="matrix(1,0,0,-1,36.948,20.123)"
                               style="font-variant:normal;font-weight:normal;font-size:9.96264px;font-family:CMR10;-inkscape-font-specification:CMR10;writing-mode:lr-tb;fill:#46413c;fill-opacity:1;fill-rule:nonzero;stroke:none"
                               id="text70"><tspan
                                 x="0 4.9813199"
                                 y="0"
                                 sodipodi:role="line"
                                 id="tspan68">10</tspan></text><text
                               transform="matrix(1,0,0,-1,46.91,23.739)"
                               style="font-variant:normal;font-weight:normal;font-size:6.97385px;font-family:CMSY7;-inkscape-font-specification:CMSY7;writing-mode:lr-tb;fill:#46413c;fill-opacity:1;fill-rule:nonzero;stroke:none"
                               id="text74"><tspan
                                 x="0"
                                 y="0"
                                 id="tspan72">−</tspan></text><text
                               transform="matrix(1,0,0,-1,53.137,23.739)"
                               style="font-variant:normal;font-weight:normal;font-size:6.97385px;font-family:CMR7;-inkscape-font-specification:CMR7;writing-mode:lr-tb;fill:#46413c;fill-opacity:1;fill-rule:nonzero;stroke:none"
                               id="text78"><tspan
                                 x="0"
                                 y="0"
                                 id="tspan76">4</tspan></text><g
                               id="g80"
                               transform="translate(36.948,20.123)" /></g></g><g
                           id="g82"
                           transform="translate(124.62,148.781)" /></g></g><g
                       id="g84"><g
                         id="g86"
                         transform="translate(-96.048,-148.781)"><g
                           id="g88"><g
                             id="g90"
                             transform="translate(-65.52,-20.123)"><text
                               transform="matrix(1,0,0,-1,65.52,20.123)"
                               style="font-variant:normal;font-weight:normal;font-size:9.96264px;font-family:CMR10;-inkscape-font-specification:CMR10;writing-mode:lr-tb;fill:#46413c;fill-opacity:1;fill-rule:nonzero;stroke:none"
                               id="text94"><tspan
                                 x="0 4.9813199"
                                 y="0"
                                 sodipodi:role="line"
                                 id="tspan92">10</tspan></text><text
                               transform="matrix(1,0,0,-1,75.483,23.739)"
                               style="font-variant:normal;font-weight:normal;font-size:6.97385px;font-family:CMSY7;-inkscape-font-specification:CMSY7;writing-mode:lr-tb;fill:#46413c;fill-opacity:1;fill-rule:nonzero;stroke:none"
                               id="text98"><tspan
                                 x="0"
                                 y="0"
                                 id="tspan96">−</tspan></text><text
                               transform="matrix(1,0,0,-1,81.71,23.739)"
                               style="font-variant:normal;font-weight:normal;font-size:6.97385px;font-family:CMR7;-inkscape-font-specification:CMR7;writing-mode:lr-tb;fill:#46413c;fill-opacity:1;fill-rule:nonzero;stroke:none"
                               id="text102"><tspan
                                 x="0"
                                 y="0"
                                 id="tspan100">3</tspan></text><g
                               id="g104"
                               transform="translate(65.52,20.123)" /></g></g><g
                           id="g106"
                           transform="translate(96.048,148.781)" /></g></g><g
                       id="g108"><g
                         id="g110"
                         transform="translate(-67.475,-148.781)"><g
                           id="g112"><g
                             id="g114"
                             transform="translate(-94.093,-20.123)"><text
                               transform="matrix(1,0,0,-1,94.093,20.123)"
                               style="font-variant:normal;font-weight:normal;font-size:9.96264px;font-family:CMR10;-inkscape-font-specification:CMR10;writing-mode:lr-tb;fill:#46413c;fill-opacity:1;fill-rule:nonzero;stroke:none"
                               id="text118"><tspan
                                 x="0 4.9813199"
                                 y="0"
                                 sodipodi:role="line"
                                 id="tspan116">10</tspan></text><text
                               transform="matrix(1,0,0,-1,104.056,23.739)"
                               style="font-variant:normal;font-weight:normal;font-size:6.97385px;font-family:CMSY7;-inkscape-font-specification:CMSY7;writing-mode:lr-tb;fill:#46413c;fill-opacity:1;fill-rule:nonzero;stroke:none"
                               id="text122"><tspan
                                 x="0"
                                 y="0"
                                 id="tspan120">−</tspan></text><text
                               transform="matrix(1,0,0,-1,110.283,23.739)"
                               style="font-variant:normal;font-weight:normal;font-size:6.97385px;font-family:CMR7;-inkscape-font-specification:CMR7;writing-mode:lr-tb;fill:#46413c;fill-opacity:1;fill-rule:nonzero;stroke:none"
                               id="text126"><tspan
                                 x="0"
                                 y="0"
                                 id="tspan124">2</tspan></text><g
                               id="g128"
                               transform="translate(94.093,20.123)" /></g></g><g
                           id="g130"
                           transform="translate(67.475,148.781)" /></g></g><g
                       id="g132"><g
                         id="g134"
                         transform="translate(-38.902,-148.781)"><g
                           id="g136"><g
                             id="g138"
                             transform="translate(-122.666,-20.123)"><text
                               transform="matrix(1,0,0,-1,122.666,20.123)"
                               style="font-variant:normal;font-weight:normal;font-size:9.96264px;font-family:CMR10;-inkscape-font-specification:CMR10;writing-mode:lr-tb;fill:#46413c;fill-opacity:1;fill-rule:nonzero;stroke:none"
                               id="text142"><tspan
                                 x="0 4.9813199"
                                 y="0"
                                 sodipodi:role="line"
                                 id="tspan140">10</tspan></text><text
                               transform="matrix(1,0,0,-1,132.629,23.739)"
                               style="font-variant:normal;font-weight:normal;font-size:6.97385px;font-family:CMSY7;-inkscape-font-specification:CMSY7;writing-mode:lr-tb;fill:#46413c;fill-opacity:1;fill-rule:nonzero;stroke:none"
                               id="text146"><tspan
                                 x="0"
                                 y="0"
                                 id="tspan144">−</tspan></text><text
                               transform="matrix(1,0,0,-1,138.856,23.739)"
                               style="font-variant:normal;font-weight:normal;font-size:6.97385px;font-family:CMR7;-inkscape-font-specification:CMR7;writing-mode:lr-tb;fill:#46413c;fill-opacity:1;fill-rule:nonzero;stroke:none"
                               id="text150"><tspan
                                 x="0"
                                 y="0"
                                 id="tspan148">1</tspan></text><g
                               id="g152"
                               transform="translate(122.666,20.123)" /></g></g><g
                           id="g154"
                           transform="translate(38.902,148.781)" /></g></g><g
                       id="g156"><g
                         id="g158"
                         transform="translate(-7.216,-148.781)"><g
                           id="g160"><g
                             id="g162"
                             transform="translate(-154.352,-20.123)"><text
                               transform="matrix(1,0,0,-1,154.352,20.123)"
                               style="font-variant:normal;font-weight:normal;font-size:9.96264px;font-family:CMR10;-inkscape-font-specification:CMR10;writing-mode:lr-tb;fill:#46413c;fill-opacity:1;fill-rule:nonzero;stroke:none"
                               id="text166"><tspan
                                 x="0 4.9813199"
                                 y="0"
                                 sodipodi:role="line"
                                 id="tspan164">10</tspan></text><text
                               transform="matrix(1,0,0,-1,164.315,23.739)"
                               style="font-variant:normal;font-weight:normal;font-size:6.97385px;font-family:CMR7;-inkscape-font-specification:CMR7;writing-mode:lr-tb;fill:#46413c;fill-opacity:1;fill-rule:nonzero;stroke:none"
                               id="text170"><tspan
                                 x="0"
                                 y="0"
                                 id="tspan168">0</tspan></text><g
                               id="g172"
                               transform="translate(154.352,20.123)" /></g></g><g
                           id="g174"
                           transform="translate(7.216,148.781)" /></g></g><g
                       id="g176"><g
                         id="g178"
                         transform="translate(21.357,-148.781)"><g
                           id="g180"><g
                             id="g182"
                             transform="translate(-182.925,-20.123)"><text
                               transform="matrix(1,0,0,-1,182.925,20.123)"
                               style="font-variant:normal;font-weight:normal;font-size:9.96264px;font-family:CMR10;-inkscape-font-specification:CMR10;writing-mode:lr-tb;fill:#46413c;fill-opacity:1;fill-rule:nonzero;stroke:none"
                               id="text186"><tspan
                                 x="0 4.9813199"
                                 y="0"
                                 sodipodi:role="line"
                                 id="tspan184">10</tspan></text><text
                               transform="matrix(1,0,0,-1,192.888,23.739)"
                               style="font-variant:normal;font-weight:normal;font-size:6.97385px;font-family:CMR7;-inkscape-font-specification:CMR7;writing-mode:lr-tb;fill:#46413c;fill-opacity:1;fill-rule:nonzero;stroke:none"
                               id="text190"><tspan
                                 x="0"
                                 y="0"
                                 id="tspan188">1</tspan></text><g
                               id="g192"
                               transform="translate(182.925,20.123)" /></g></g><g
                           id="g194"
                           transform="translate(-21.357,148.781)" /></g></g><g
                       id="g196"><g
                         id="g198"
                         transform="translate(49.93,-148.781)"><g
                           id="g200"><g
                             id="g202"
                             transform="translate(-211.498,-20.123)"><text
                               transform="matrix(1,0,0,-1,211.498,20.123)"
                               style="font-variant:normal;font-weight:normal;font-size:9.96264px;font-family:CMR10;-inkscape-font-specification:CMR10;writing-mode:lr-tb;fill:#46413c;fill-opacity:1;fill-rule:nonzero;stroke:none"
                               id="text206"><tspan
                                 x="0 4.9813199"
                                 y="0"
                                 sodipodi:role="line"
                                 id="tspan204">10</tspan></text><text
                               transform="matrix(1,0,0,-1,221.461,23.739)"
                               style="font-variant:normal;font-weight:normal;font-size:6.97385px;font-family:CMR7;-inkscape-font-specification:CMR7;writing-mode:lr-tb;fill:#46413c;fill-opacity:1;fill-rule:nonzero;stroke:none"
                               id="text210"><tspan
                                 x="0"
                                 y="0"
                                 id="tspan208">2</tspan></text><g
                               id="g212"
                               transform="translate(211.498,20.123)" /></g></g><g
                           id="g214"
                           transform="translate(-49.93,148.781)" /></g></g><g
                       id="g216"><g
                         id="g218"
                         transform="translate(78.503,-148.781)"><g
                           id="g220"><g
                             id="g222"
                             transform="translate(-240.071,-20.123)"><text
                               transform="matrix(1,0,0,-1,240.071,20.123)"
                               style="font-variant:normal;font-weight:normal;font-size:9.96264px;font-family:CMR10;-inkscape-font-specification:CMR10;writing-mode:lr-tb;fill:#46413c;fill-opacity:1;fill-rule:nonzero;stroke:none"
                               id="text226"><tspan
                                 x="0 4.9813199"
                                 y="0"
                                 sodipodi:role="line"
                                 id="tspan224">10</tspan></text><text
                               transform="matrix(1,0,0,-1,250.034,23.739)"
                               style="font-variant:normal;font-weight:normal;font-size:6.97385px;font-family:CMR7;-inkscape-font-specification:CMR7;writing-mode:lr-tb;fill:#46413c;fill-opacity:1;fill-rule:nonzero;stroke:none"
                               id="text230"><tspan
                                 x="0"
                                 y="0"
                                 id="tspan228">3</tspan></text><g
                               id="g232"
                               transform="translate(240.071,20.123)" /></g></g><g
                           id="g234"
                           transform="translate(-78.503,148.781)" /></g></g><g
                       id="g236"><g
                         id="g238"
                         transform="translate(107.076,-148.781)"><g
                           id="g240"><g
                             id="g242"
                             transform="translate(-268.644,-20.123)"><text
                               transform="matrix(1,0,0,-1,268.644,20.123)"
                               style="font-variant:normal;font-weight:normal;font-size:9.96264px;font-family:CMR10;-inkscape-font-specification:CMR10;writing-mode:lr-tb;fill:#46413c;fill-opacity:1;fill-rule:nonzero;stroke:none"
                               id="text246"><tspan
                                 x="0 4.9813199"
                                 y="0"
                                 sodipodi:role="line"
                                 id="tspan244">10</tspan></text><text
                               transform="matrix(1,0,0,-1,278.607,23.739)"
                               style="font-variant:normal;font-weight:normal;font-size:6.97385px;font-family:CMR7;-inkscape-font-specification:CMR7;writing-mode:lr-tb;fill:#46413c;fill-opacity:1;fill-rule:nonzero;stroke:none"
                               id="text250"><tspan
                                 x="0"
                                 y="0"
                                 id="tspan248">4</tspan></text><g
                               id="g252"
                               transform="translate(268.644,20.123)" /></g></g><g
                           id="g254"
                           transform="translate(-107.076,148.781)" /></g></g><g
                       id="g256"><g
                         id="g258"
                         transform="translate(-142.441,-141.206)"><g
                           id="g260"><g
                             id="g262"
                             transform="translate(-19.127,-27.698)"><text
                               transform="matrix(1,0,0,-1,19.127,27.698)"
                               style="font-variant:normal;font-weight:normal;font-size:9.96264px;font-family:CMR10;-inkscape-font-specification:CMR10;writing-mode:lr-tb;fill:#46413c;fill-opacity:1;fill-rule:nonzero;stroke:none"
                               id="text266"><tspan
                                 x="0 4.9813199"
                                 y="0"
                                 sodipodi:role="line"
                                 id="tspan264">10</tspan></text><text
                               transform="matrix(1,0,0,-1,29.09,31.313)"
                               style="font-variant:normal;font-weight:normal;font-size:6.97385px;font-family:CMSY7;-inkscape-font-specification:CMSY7;writing-mode:lr-tb;fill:#46413c;fill-opacity:1;fill-rule:nonzero;stroke:none"
                               id="text270"><tspan
                                 x="0"
                                 y="0"
                                 id="tspan268">−</tspan></text><text
                               transform="matrix(1,0,0,-1,35.317,31.313)"
                               style="font-variant:normal;font-weight:normal;font-size:6.97385px;font-family:CMR7;-inkscape-font-specification:CMR7;writing-mode:lr-tb;fill:#46413c;fill-opacity:1;fill-rule:nonzero;stroke:none"
                               id="text274"><tspan
                                 x="0 3.9709101"
                                 y="0"
                                 sodipodi:role="line"
                                 id="tspan272">12</tspan></text><g
                               id="g276"
                               transform="translate(19.127,27.698)" /></g></g><g
                           id="g278"
                           transform="translate(142.441,141.206)" /></g></g><g
                       id="g280"><g
                         id="g282"
                         transform="translate(-138.47,-106.918)"><g
                           id="g284"><g
                             id="g286"
                             transform="translate(-23.098,-61.986)"><text
                               transform="matrix(1,0,0,-1,23.098,61.986)"
                               style="font-variant:normal;font-weight:normal;font-size:9.96264px;font-family:CMR10;-inkscape-font-specification:CMR10;writing-mode:lr-tb;fill:#46413c;fill-opacity:1;fill-rule:nonzero;stroke:none"
                               id="text290"><tspan
                                 x="0 4.9813199"
                                 y="0"
                                 sodipodi:role="line"
                                 id="tspan288">10</tspan></text><text
                               transform="matrix(1,0,0,-1,33.061,65.601)"
                               style="font-variant:normal;font-weight:normal;font-size:6.97385px;font-family:CMSY7;-inkscape-font-specification:CMSY7;writing-mode:lr-tb;fill:#46413c;fill-opacity:1;fill-rule:nonzero;stroke:none"
                               id="text294"><tspan
                                 x="0"
                                 y="0"
                                 id="tspan292">−</tspan></text><text
                               transform="matrix(1,0,0,-1,39.288,65.601)"
                               style="font-variant:normal;font-weight:normal;font-size:6.97385px;font-family:CMR7;-inkscape-font-specification:CMR7;writing-mode:lr-tb;fill:#46413c;fill-opacity:1;fill-rule:nonzero;stroke:none"
                               id="text298"><tspan
                                 x="0"
                                 y="0"
                                 id="tspan296">9</tspan></text><g
                               id="g300"
                               transform="translate(23.098,61.986)" /></g></g><g
                           id="g302"
                           transform="translate(138.47,106.918)" /></g></g><g
                       id="g304"><g
                         id="g306"
                         transform="translate(-138.47,-72.63)"><g
                           id="g308"><g
                             id="g310"
                             transform="translate(-23.098,-96.274)"><text
                               transform="matrix(1,0,0,-1,23.098,96.274)"
                               style="font-variant:normal;font-weight:normal;font-size:9.96264px;font-family:CMR10;-inkscape-font-specification:CMR10;writing-mode:lr-tb;fill:#46413c;fill-opacity:1;fill-rule:nonzero;stroke:none"
                               id="text314"><tspan
                                 x="0 4.9813199"
                                 y="0"
                                 sodipodi:role="line"
                                 id="tspan312">10</tspan></text><text
                               transform="matrix(1,0,0,-1,33.061,99.889)"
                               style="font-variant:normal;font-weight:normal;font-size:6.97385px;font-family:CMSY7;-inkscape-font-specification:CMSY7;writing-mode:lr-tb;fill:#46413c;fill-opacity:1;fill-rule:nonzero;stroke:none"
                               id="text318"><tspan
                                 x="0"
                                 y="0"
                                 id="tspan316">−</tspan></text><text
                               transform="matrix(1,0,0,-1,39.288,99.889)"
                               style="font-variant:normal;font-weight:normal;font-size:6.97385px;font-family:CMR7;-inkscape-font-specification:CMR7;writing-mode:lr-tb;fill:#46413c;fill-opacity:1;fill-rule:nonzero;stroke:none"
                               id="text322"><tspan
                                 x="0"
                                 y="0"
                                 id="tspan320">6</tspan></text><g
                               id="g324"
                               transform="translate(23.098,96.274)" /></g></g><g
                           id="g326"
                           transform="translate(138.47,72.63)" /></g></g><g
                       id="g328"><g
                         id="g330"
                         transform="translate(-138.47,-38.342)"><g
                           id="g332"><g
                             id="g334"
                             transform="translate(-23.098,-130.562)"><text
                               transform="matrix(1,0,0,-1,23.098,130.562)"
                               style="font-variant:normal;font-weight:normal;font-size:9.96264px;font-family:CMR10;-inkscape-font-specification:CMR10;writing-mode:lr-tb;fill:#46413c;fill-opacity:1;fill-rule:nonzero;stroke:none"
                               id="text338"><tspan
                                 x="0 4.9813199"
                                 y="0"
                                 sodipodi:role="line"
                                 id="tspan336">10</tspan></text><text
                               transform="matrix(1,0,0,-1,33.061,134.177)"
                               style="font-variant:normal;font-weight:normal;font-size:6.97385px;font-family:CMSY7;-inkscape-font-specification:CMSY7;writing-mode:lr-tb;fill:#46413c;fill-opacity:1;fill-rule:nonzero;stroke:none"
                               id="text342"><tspan
                                 x="0"
                                 y="0"
                                 id="tspan340">−</tspan></text><text
                               transform="matrix(1,0,0,-1,39.288,134.177)"
                               style="font-variant:normal;font-weight:normal;font-size:6.97385px;font-family:CMR7;-inkscape-font-specification:CMR7;writing-mode:lr-tb;fill:#46413c;fill-opacity:1;fill-rule:nonzero;stroke:none"
                               id="text346"><tspan
                                 x="0"
                                 y="0"
                                 id="tspan344">3</tspan></text><g
                               id="g348"
                               transform="translate(23.098,130.562)" /></g></g><g
                           id="g350"
                           transform="translate(138.47,38.342)" /></g></g><g
                       id="g352"
                       clip-path="url(#clipPath356)"><g
                         id="g358"><path
                           d="m -114.29298,-59.68806 h 0.57258 0.57279 0.57316 0.57279 0.57278 0.57297 0.57297 0.57278 0.5726 0.57277 0.57299 0.57221 0.57315 0.57261 0.5724 0.57429 0.57297 0.57298 0.57297 0.57317 0.57278 0.5726 0.57277 0.5724 0.57337 0.57257 0.57298 0.57279 0.57127 0.57353 0.57449 0.57278 0.57298 0.57335 0.57277 0.57242 0.57316 0.5724 0.57297 0.57279 0.5726 0.57295 0.57317 0.57203 0.57279 0.57429 0.57279 0.57333 0.5728 0.57278 0.57279 0.57296 0.57297 0.57299 0.57277 0.5724 0.57317 0.57258 0.57317 0.57298 0.57222 0.57277 0.57355 0.57222 0.57391 0.57278 0.57279 0.57315 0.57278 0.57299 0.57315 0.5724 0.57242 0.57296 0.57354 0.57184 0.57354 0.57277 0.57108 0.57525 0.57279 0.57278 0.57297 0.57317 0.57258 0.57337 0.57258 0.57297 0.57204 0.57296 0.57277 0.57242 0.57316 0.57296 0.57393 0.57278 0.57297 0.57298 0.57297 0.57297 0.5726 0.57297 0.57297 0.57278 0.57317 0.57276 0.5728 0.57279 0.57258 0.57297 0.57355 0.57127 0.57372 0.57184 0.57449 0.57277 0.57318 0.57278 0.57277 0.57298 0.57317 0.57203 0.57296 0.57317 0.57258 0.57204 0.57295 0.5728 0.57392 0.57373 0.5724 0.57297 l 0.57278,1.5e-4 h 0.57298 0.57315 0.57241 0.57316 0.5726 0.57277 0.57279 0.57222 l 0.57316,3.8e-4 h 0.57259 0.57278 0.57449 0.5726 0.57298 0.57295 0.57298 0.57279 l 0.57278,-7e-5 h 0.57315 0.57298 l 0.57299,2.2e-4 h 0.57277 l 0.57298,8e-5 h 0.57278 l 0.57257,-2.3e-4 0.5728,1.5e-4 h 0.57297 l 0.57298,1.5e-4 0.57183,-7e-5 0.57296,7e-5 0.57375,8e-5 0.57333,-8e-5 0.57242,1.6e-4 0.57317,-8e-5 0.57315,3.1e-4 0.57278,-2.3e-4 0.5726,2.9e-4 h 0.57277 l 0.57299,2.3e-4 0.57278,2.2e-4 0.57315,1.6e-4 0.5724,1.5e-4 0.57279,1.5e-4 h 0.57336 l 0.57126,2.3e-4 0.57279,3.1e-4 0.57505,3e-4 0.57241,2.9e-4 0.57335,1.5e-4 0.57278,3.1e-4 0.57315,4.6e-4 0.5728,3e-4 0.57259,2.3e-4 0.5726,6.7e-4 0.57297,3.1e-4 0.57278,7.6e-4 0.57279,5.3e-4 0.57334,8.3e-4 0.57241,4.6e-4 0.5726,8.3e-4 0.5722,0.0011 0.5745,0.0011 0.57278,10e-4 0.57277,0.0011 0.57336,0.0012 0.57297,0.0014 0.57256,0.0014 0.57316,0.0019 0.5726,0.0017 0.57315,0.002 0.57279,0.0024 0.57278,0.0023 0.57299,0.0027 0.57238,0.003 0.57355,0.0033 0.57261,0.0036 0.57238,0.0037 0.57355,0.0045 0.57278,0.0046 0.57166,0.0051 0.57164,0.0056 0.57544,0.0062 0.57295,0.007 0.57298,0.0075 0.57317,0.0081 0.57277,0.0091 0.57278,0.0099 0.57222,0.01107 0.57317,0.01166 0.57278,0.01357 0.57279,0.01414 0.57278,0.01622 0.57279,0.01742 0.57353,0.01931 0.5724,0.02128 0.5728,0.02349 0.57372,0.02583 0.5726,0.02855 0.57296,0.03157 0.57279,0.03485 0.57335,0.03824 0.5724,0.04236 0.57278,0.04708 0.57297,0.05206 0.57241,0.05785 0.57316,0.06371 0.5722,0.07179 0.57337,0.07932 0.57184,0.08853 0.57297,0.09961 0.5724,0.11073 0.57524,0.12444 0.57278,0.1405 0.57279,0.16011 0.57298,0.18056 0.57333,0.20617 0.5726,0.23647 0.57279,0.27335 0.57315,0.31819 0.57298,0.37467 0.57279,0.44681 0.57277,0.54123 0.5728,0.67137 0.57297,0.85912 0.5724,1.15462 0.57297,1.67802 0.57298,2.86528 0.57258,7.06928 0.57317,-6.41375 0.57164,-3.87437 0.57241,-2.33917 0.57505,-1.72037 0.5726,-1.38782 0.57317,-1.18101 0.57315,-1.04091 0.5726,-0.93933 0.57317,-0.86429 0.5724,-0.80634 0.57296,-0.75952 0.57241,-0.72317 0.5726,-0.69325 0.57372,-0.66933 0.57222,-0.65062 0.57335,-0.63319 0.57222,-0.62085 0.57315,-0.61115 0.57374,-0.60434 0.57277,-0.6 0.57279,-0.598 0.57316,-0.5991 0.57259,-0.60327 0.57298,-0.61124 0.57297,-0.62395 0.5726,-0.64258 0.57277,-0.67091 0.57316,-0.71197 0.57299,-0.77218 0.57277,-0.86579 0.57125,-1.01455 0.57413,-1.24858 0.57164,-1.48082 0.57468,-0.36847 0.57278,2.90541 0.57279,3.35918 0.57315,0.90505 0.57318,-1.1381 0.57277,-1.25972 0.57297,-1.07908 0.5728,-0.94403 0.57296,-0.86336 0.57277,-0.81908 0.5728,-0.80209 0.57317,-0.80588 0.57315,-0.82709 0.57184,-0.8636 0.57373,-0.90646 0.57202,-0.9335 0.57278,-0.86389 0.57278,-0.5255 0.57261,0.18911 0.57146,0.92239 0.5758,1.28744 0.5726,1.34372 0.57295,1.22259 0.57298,0.9401 0.57279,0.49975 0.57297,0.02416 0.5724,-0.315 0.57337,-0.47521 0.57202,-0.51776 0.57353,-0.50421 0.57222,-0.47051 0.57317,-0.43337 0.57296,-0.40243 0.57259,-0.38051 0.5726,-0.37559 0.5741,-0.39122 0.5726,-0.43309 0.57316,-0.50209 0.57297,-0.59689 0.5726,-0.70781 0.57317,-0.81966 0.57295,-0.92503 0.57279,-1.01644 0.5726,-1.09649 0.5724,-1.1711 0.57297,-1.25034 0.57336,-1.34478 0.57259,-1.46695 0.57146,-1.63448 0.57258,-1.88127 0.57526,-2.27736 0.57277,-3.0247 0.5728,-4.99988 0.57316,-3.3183 0.57295,4.94551 0.57299,1.89633 0.57278,0.92275 0.57277,0.44769 0.57298,0.1646 0.57317,-0.0257 0.57277,-0.1633 0.5724,-0.26834 0.57298,-0.3516 0.57317,-0.41969 0.57239,-0.47687 0.57298,-0.52533 0.57222,-0.56616 0.57372,-0.60313 0.57183,-0.635 0.57146,-0.66319 0.57582,-0.68818 0.57259,-0.70924 0.57298,-0.72831 0.57277,-0.74454 0.57317,-0.75855 0.5728,-0.76649 0.57278,-0.77431 0.57257,-0.77777 0.5728,-0.77704 0.57259,-0.77232 0.57315,-0.76378 0.5728,-0.74884 0.57258,-0.73128 0.57204,-0.70968 0.57391,-0.68554 0.57355,-0.65933 0.57295,-0.63266 0.57278,-0.60682 0.57319,-0.58382 0.57295,-0.5632 0.57298,-0.54678 0.57222,-0.53428 0.57317,-0.5245 0.57257,-0.5195 0.5726,-0.51627 0.57298,-0.51616 0.57315,-0.51791 0.57279,-0.52057 0.57222,-0.52443 0.57184,-0.5277 0.57504,-0.53199 0.57298,-0.53315 0.57279,-0.53518 0.57315,-0.53404 0.57316,-0.53164"
                           style="fill:none;stroke:#0571b0;stroke-width:1.49442;stroke-linecap:butt;stroke-linejoin:miter;stroke-miterlimit:10;stroke-dasharray:none;stroke-opacity:1"
                           id="path360" /></g></g></g><g
                     id="g362"><g
                       id="g364"
                       transform="translate(-31.113,-163.093)"><g
                         id="g366"><g
                           id="g368"
                           transform="translate(-130.455,-5.811)"><text
                             transform="matrix(1,0,0,-1,130.455,5.811)"
                             style="font-variant:normal;font-weight:normal;font-size:9.96264px;font-family:LMSans10;-inkscape-font-specification:LMSans10-Regular;writing-mode:lr-tb;fill:#46413c;fill-opacity:1;fill-rule:nonzero;stroke:none"
                             id="text372"><tspan
                               x="0 3.0485678 6.4557905 10.879203 16.029888 21.180573 25.603985 30.754669 35.178082 43.088417 46.963886 54.017433 58.351181"
                               y="0"
                               sodipodi:role="line"
                               id="tspan370">frequency(Hz)</tspan></text><g
                             id="g374"
                             transform="translate(130.455,5.811)" /></g></g><g
                         id="g376"
                         transform="translate(31.113,163.093)" /></g></g><g
                     id="g378"><g
                       id="g380"
                       transform="rotate(90,-24.578,-126.755)"><g
                         id="g382"><g
                           id="g384"
                           transform="translate(-10.235,-66.727)"><text
                             transform="matrix(1,0,0,-1,10.235,66.727)"
                             style="font-variant:normal;font-weight:normal;font-size:9.96264px;font-family:LMSans10;-inkscape-font-specification:LMSans10-Regular;writing-mode:lr-tb;fill:#46413c;fill-opacity:1;fill-rule:nonzero;stroke:none"
                             id="text388"><tspan
                               x="0 8.71731 13.50934 18.49066 23.641344 26.022415 29.618929 34.769615 39.9203"
                               y="0"
                               sodipodi:role="line"
                               id="tspan386">Magnitude</tspan></text><g
                             id="g390"
                             transform="translate(10.235,66.727)" /></g></g><g
                         id="g392"
                         transform="translate(151.333,102.177)" /></g></g></g></g><g
                 id="g394"
                 transform="translate(-161.568,-168.904)" /></g><g
               id="g396"
               transform="translate(47.277,31.753)" /></g><g
             id="g398" /><g
             id="g400" /></g></g></g></g></svg>
