<?xml version="1.0" encoding="UTF-8" standalone="no"?>
<!-- Created with Inkscape (http://www.inkscape.org/) -->

<svg
   version="1.1"
   id="svg2"
   xml:space="preserve"
   width="224.832"
   height="132.93867"
   viewBox="0 0 224.832 132.93867"
   sodipodi:docname="fishtail_tf1.pdf"
   xmlns:inkscape="http://www.inkscape.org/namespaces/inkscape"
   xmlns:sodipodi="http://sodipodi.sourceforge.net/DTD/sodipodi-0.dtd"
   xmlns="http://www.w3.org/2000/svg"
   xmlns:svg="http://www.w3.org/2000/svg"><defs
     id="defs6"><clipPath
       clipPathUnits="userSpaceOnUse"
       id="clipPath224"><path
         d="M -60.57462,-72.6918 H 60.57462 v 60.57652 H -60.57462 Z"
         id="path222" /></clipPath></defs><sodipodi:namedview
     id="namedview4"
     pagecolor="#ffffff"
     bordercolor="#666666"
     borderopacity="1.0"
     inkscape:pageshadow="2"
     inkscape:pageopacity="0.0"
     inkscape:pagecheckerboard="0" /><g
     id="g8"
     inkscape:groupmode="layer"
     inkscape:label="fishtail_tf1"
     transform="matrix(1.3333333,0,0,-1.3333333,0,132.93867)"><g
       id="g10"
       transform="translate(47.277,31.753)"><g
         id="g12"><g
           id="g14" /><g
           id="g16"><g
             id="g18" /><g
             id="g20" /><g
             id="g22"><g
               id="g24" /></g><g
             id="g26" /><g
             id="g28" /><g
             id="g30" /><g
             id="g32" /><g
             id="g34"
             transform="translate(-47.277,-31.753)"><g
               id="g36"
               transform="translate(107.851,104.444)"><g
                 id="g38"><g
                   id="g40" /><g
                   id="g42"><g
                     id="g44"><g
                       id="g46"><g
                         id="g48"><path
                           d="m -45.43095,-72.6918 v 4.2516 m 30.2873,-4.2516 v 4.2516 m 30.2873,-4.2516 v 4.2516 m 30.2873,-4.2516 v 4.2516 m -90.8619,56.32492 v -4.25163 m 30.2873,4.25163 v -4.25163 m 30.2873,4.25163 v -4.25163 m 30.2873,4.25163 v -4.25163"
                           style="fill:none;stroke:#808080;stroke-width:0.19925;stroke-linecap:butt;stroke-linejoin:miter;stroke-miterlimit:10;stroke-dasharray:none;stroke-opacity:1"
                           id="path50" /></g></g><g
                       id="g52"><g
                         id="g54"><path
                           d="m -60.57462,-72.6918 h 4.2502 m -4.2502,30.28825 h 4.2502 m -4.2502,30.28827 h 4.2502 M 60.57462,-72.6918 h -4.2502 m 4.2502,30.28825 h -4.2502 m 4.2502,30.28827 h -4.2502"
                           style="fill:none;stroke:#808080;stroke-width:0.19925;stroke-linecap:butt;stroke-linejoin:miter;stroke-miterlimit:10;stroke-dasharray:none;stroke-opacity:1"
                           id="path56" /></g></g><path
                       d="m -60.57462,-72.6918 v 60.57652 H 60.57462 V -72.6918 Z"
                       style="fill:none;stroke:#46413c;stroke-width:0.3985;stroke-linecap:butt;stroke-linejoin:miter;stroke-miterlimit:10;stroke-dasharray:none;stroke-opacity:1"
                       id="path58" /><g
                       id="g60"><g
                         id="g62"
                         transform="translate(-55.76,-84.321)"><g
                           id="g64"><g
                             id="g66"
                             transform="translate(-52.091,-20.123)"><text
                               transform="matrix(1,0,0,-1,52.091,20.123)"
                               style="font-variant:normal;font-weight:normal;font-size:9.96264px;font-family:CMR10;-inkscape-font-specification:CMR10;writing-mode:lr-tb;fill:#46413c;fill-opacity:1;fill-rule:nonzero;stroke:none"
                               id="text70"><tspan
                                 x="0 4.9813199"
                                 y="0"
                                 sodipodi:role="line"
                                 id="tspan68">10</tspan></text><text
                               transform="matrix(1,0,0,-1,62.054,23.739)"
                               style="font-variant:normal;font-weight:normal;font-size:6.97385px;font-family:CMSY7;-inkscape-font-specification:CMSY7;writing-mode:lr-tb;fill:#46413c;fill-opacity:1;fill-rule:nonzero;stroke:none"
                               id="text74"><tspan
                                 x="0"
                                 y="0"
                                 id="tspan72">−</tspan></text><text
                               transform="matrix(1,0,0,-1,68.28,23.739)"
                               style="font-variant:normal;font-weight:normal;font-size:6.97385px;font-family:CMR7;-inkscape-font-specification:CMR7;writing-mode:lr-tb;fill:#46413c;fill-opacity:1;fill-rule:nonzero;stroke:none"
                               id="text78"><tspan
                                 x="0"
                                 y="0"
                                 id="tspan76">3</tspan></text><g
                               id="g80"
                               transform="translate(52.091,20.123)" /></g></g><g
                           id="g82"
                           transform="translate(55.76,84.321)" /></g></g><g
                       id="g84"><g
                         id="g86"
                         transform="translate(-25.473,-84.321)"><g
                           id="g88"><g
                             id="g90"
                             transform="translate(-82.378,-20.123)"><text
                               transform="matrix(1,0,0,-1,82.378,20.123)"
                               style="font-variant:normal;font-weight:normal;font-size:9.96264px;font-family:CMR10;-inkscape-font-specification:CMR10;writing-mode:lr-tb;fill:#46413c;fill-opacity:1;fill-rule:nonzero;stroke:none"
                               id="text94"><tspan
                                 x="0 4.9813199"
                                 y="0"
                                 sodipodi:role="line"
                                 id="tspan92">10</tspan></text><text
                               transform="matrix(1,0,0,-1,92.341,23.739)"
                               style="font-variant:normal;font-weight:normal;font-size:6.97385px;font-family:CMSY7;-inkscape-font-specification:CMSY7;writing-mode:lr-tb;fill:#46413c;fill-opacity:1;fill-rule:nonzero;stroke:none"
                               id="text98"><tspan
                                 x="0"
                                 y="0"
                                 id="tspan96">−</tspan></text><text
                               transform="matrix(1,0,0,-1,98.567,23.739)"
                               style="font-variant:normal;font-weight:normal;font-size:6.97385px;font-family:CMR7;-inkscape-font-specification:CMR7;writing-mode:lr-tb;fill:#46413c;fill-opacity:1;fill-rule:nonzero;stroke:none"
                               id="text102"><tspan
                                 x="0"
                                 y="0"
                                 id="tspan100">1</tspan></text><g
                               id="g104"
                               transform="translate(82.378,20.123)" /></g></g><g
                           id="g106"
                           transform="translate(25.473,84.321)" /></g></g><g
                       id="g108"><g
                         id="g110"
                         transform="translate(7.927,-84.321)"><g
                           id="g112"><g
                             id="g114"
                             transform="translate(-115.778,-20.123)"><text
                               transform="matrix(1,0,0,-1,115.778,20.123)"
                               style="font-variant:normal;font-weight:normal;font-size:9.96264px;font-family:CMR10;-inkscape-font-specification:CMR10;writing-mode:lr-tb;fill:#46413c;fill-opacity:1;fill-rule:nonzero;stroke:none"
                               id="text118"><tspan
                                 x="0 4.9813199"
                                 y="0"
                                 sodipodi:role="line"
                                 id="tspan116">10</tspan></text><text
                               transform="matrix(1,0,0,-1,125.741,23.739)"
                               style="font-variant:normal;font-weight:normal;font-size:6.97385px;font-family:CMR7;-inkscape-font-specification:CMR7;writing-mode:lr-tb;fill:#46413c;fill-opacity:1;fill-rule:nonzero;stroke:none"
                               id="text122"><tspan
                                 x="0"
                                 y="0"
                                 id="tspan120">1</tspan></text><g
                               id="g124"
                               transform="translate(115.778,20.123)" /></g></g><g
                           id="g126"
                           transform="translate(-7.927,84.321)" /></g></g><g
                       id="g128"><g
                         id="g130"
                         transform="translate(38.214,-84.321)"><g
                           id="g132"><g
                             id="g134"
                             transform="translate(-146.065,-20.123)"><text
                               transform="matrix(1,0,0,-1,146.065,20.123)"
                               style="font-variant:normal;font-weight:normal;font-size:9.96264px;font-family:CMR10;-inkscape-font-specification:CMR10;writing-mode:lr-tb;fill:#46413c;fill-opacity:1;fill-rule:nonzero;stroke:none"
                               id="text138"><tspan
                                 x="0 4.9813199"
                                 y="0"
                                 sodipodi:role="line"
                                 id="tspan136">10</tspan></text><text
                               transform="matrix(1,0,0,-1,156.028,23.739)"
                               style="font-variant:normal;font-weight:normal;font-size:6.97385px;font-family:CMR7;-inkscape-font-specification:CMR7;writing-mode:lr-tb;fill:#46413c;fill-opacity:1;fill-rule:nonzero;stroke:none"
                               id="text142"><tspan
                                 x="0"
                                 y="0"
                                 id="tspan140">3</tspan></text><g
                               id="g144"
                               transform="translate(146.065,20.123)" /></g></g><g
                           id="g146"
                           transform="translate(-38.214,84.321)" /></g></g><g
                       id="g148"><g
                         id="g150"
                         transform="translate(-88.724,-76.746)"><g
                           id="g152"><g
                             id="g154"
                             transform="translate(-19.127,-27.698)"><text
                               transform="matrix(1,0,0,-1,19.127,27.698)"
                               style="font-variant:normal;font-weight:normal;font-size:9.96264px;font-family:CMR10;-inkscape-font-specification:CMR10;writing-mode:lr-tb;fill:#46413c;fill-opacity:1;fill-rule:nonzero;stroke:none"
                               id="text158"><tspan
                                 x="0 4.9813199"
                                 y="0"
                                 sodipodi:role="line"
                                 id="tspan156">10</tspan></text><text
                               transform="matrix(1,0,0,-1,29.09,31.313)"
                               style="font-variant:normal;font-weight:normal;font-size:6.97385px;font-family:CMSY7;-inkscape-font-specification:CMSY7;writing-mode:lr-tb;fill:#46413c;fill-opacity:1;fill-rule:nonzero;stroke:none"
                               id="text162"><tspan
                                 x="0"
                                 y="0"
                                 id="tspan160">−</tspan></text><text
                               transform="matrix(1,0,0,-1,35.317,31.313)"
                               style="font-variant:normal;font-weight:normal;font-size:6.97385px;font-family:CMR7;-inkscape-font-specification:CMR7;writing-mode:lr-tb;fill:#46413c;fill-opacity:1;fill-rule:nonzero;stroke:none"
                               id="text166"><tspan
                                 x="0 3.9709101"
                                 y="0"
                                 sodipodi:role="line"
                                 id="tspan164">12</tspan></text><g
                               id="g168"
                               transform="translate(19.127,27.698)" /></g></g><g
                           id="g170"
                           transform="translate(88.724,76.746)" /></g></g><g
                       id="g172"><g
                         id="g174"
                         transform="translate(-84.753,-46.458)"><g
                           id="g176"><g
                             id="g178"
                             transform="translate(-23.098,-57.986)"><text
                               transform="matrix(1,0,0,-1,23.098,57.986)"
                               style="font-variant:normal;font-weight:normal;font-size:9.96264px;font-family:CMR10;-inkscape-font-specification:CMR10;writing-mode:lr-tb;fill:#46413c;fill-opacity:1;fill-rule:nonzero;stroke:none"
                               id="text182"><tspan
                                 x="0 4.9813199"
                                 y="0"
                                 sodipodi:role="line"
                                 id="tspan180">10</tspan></text><text
                               transform="matrix(1,0,0,-1,33.061,61.601)"
                               style="font-variant:normal;font-weight:normal;font-size:6.97385px;font-family:CMSY7;-inkscape-font-specification:CMSY7;writing-mode:lr-tb;fill:#46413c;fill-opacity:1;fill-rule:nonzero;stroke:none"
                               id="text186"><tspan
                                 x="0"
                                 y="0"
                                 id="tspan184">−</tspan></text><text
                               transform="matrix(1,0,0,-1,39.288,61.601)"
                               style="font-variant:normal;font-weight:normal;font-size:6.97385px;font-family:CMR7;-inkscape-font-specification:CMR7;writing-mode:lr-tb;fill:#46413c;fill-opacity:1;fill-rule:nonzero;stroke:none"
                               id="text190"><tspan
                                 x="0"
                                 y="0"
                                 id="tspan188">7</tspan></text><g
                               id="g192"
                               transform="translate(23.098,57.986)" /></g></g><g
                           id="g194"
                           transform="translate(84.753,46.458)" /></g></g><g
                       id="g196"><g
                         id="g198"
                         transform="translate(-84.753,-16.17)"><g
                           id="g200"><g
                             id="g202"
                             transform="translate(-23.098,-88.274)"><text
                               transform="matrix(1,0,0,-1,23.098,88.274)"
                               style="font-variant:normal;font-weight:normal;font-size:9.96264px;font-family:CMR10;-inkscape-font-specification:CMR10;writing-mode:lr-tb;fill:#46413c;fill-opacity:1;fill-rule:nonzero;stroke:none"
                               id="text206"><tspan
                                 x="0 4.9813199"
                                 y="0"
                                 sodipodi:role="line"
                                 id="tspan204">10</tspan></text><text
                               transform="matrix(1,0,0,-1,33.061,91.889)"
                               style="font-variant:normal;font-weight:normal;font-size:6.97385px;font-family:CMSY7;-inkscape-font-specification:CMSY7;writing-mode:lr-tb;fill:#46413c;fill-opacity:1;fill-rule:nonzero;stroke:none"
                               id="text210"><tspan
                                 x="0"
                                 y="0"
                                 id="tspan208">−</tspan></text><text
                               transform="matrix(1,0,0,-1,39.288,91.889)"
                               style="font-variant:normal;font-weight:normal;font-size:6.97385px;font-family:CMR7;-inkscape-font-specification:CMR7;writing-mode:lr-tb;fill:#46413c;fill-opacity:1;fill-rule:nonzero;stroke:none"
                               id="text214"><tspan
                                 x="0"
                                 y="0"
                                 id="tspan212">2</tspan></text><g
                               id="g216"
                               transform="translate(23.098,88.274)" /></g></g><g
                           id="g218"
                           transform="translate(84.753,16.17)" /></g></g><g
                       id="g220"
                       clip-path="url(#clipPath224)"><g
                         id="g226"><path
                           d="m -60.57462,-31.63493 h 0.30347 0.30357 0.30378 0.30357 0.30357 0.30367 0.30366 0.30358 0.30348 0.30356 0.30368 0.30328 0.30376 0.30348 0.30338 0.30436 0.30367 0.30366 0.30368 0.30378 0.30357 0.30347 0.30359 0.30335 0.30388 0.30347 0.30367 0.30357 0.30278 0.30396 0.30448 0.30356 0.30368 0.30388 0.30356 0.30338 0.30378 0.30336 0.30367 0.30359 0.30345 0.30368 0.30377 0.30316 0.30359 0.30437 0.30357 0.30388 0.30356 0.30357 0.30356 0.30368 0.30368 0.30367 0.30357 0.30337 0.30378 0.30346 0.30379 0.30365 0.30329 0.30357 0.30397 0.30327 0.30417 0.30357 0.30358 0.30377 0.30357 0.30368 0.30376 0.30337 0.30338 0.30366 0.30399 0.30307 0.30397 0.30357 0.30267 0.30488 0.30357 0.30356 0.30368 0.30375 0.30349 0.30388 0.30346 0.30367 0.30317 0.30367 0.30357 0.30338 0.30377 0.30368 0.30416 0.30358 0.30367 0.30366 0.30369 0.30367 0.30346 0.30367 0.30369 0.30355 0.30379 0.30356 0.30357 0.30358 0.30346 0.30368 0.30398 0.30276 0.30408 0.30307 0.30447 0.30357 0.30378 0.30357 0.30357 0.30367 0.30377 0.30318 0.30366 0.30378 0.30348 0.30316 0.30368 0.30357 0.30417 0.30408 0.30336 0.30368 l 0.30357,9e-5 h 0.30367 0.30377 0.30338 0.30377 0.30347 0.30357 0.30357 0.30327 l 0.30377,2e-4 h 0.30347 0.30357 0.30448 0.30348 0.30366 0.30367 0.30368 0.30357 l 0.30356,-5e-5 h 0.30379 0.30366 l 0.30368,1.2e-4 h 0.30358 l 0.30366,5e-5 h 0.30358 l 0.30346,-1.2e-4 0.30357,7e-5 h 0.30367 l 0.30368,9e-5 0.30305,-4e-5 0.30369,4e-5 0.30406,3e-5 0.30389,-3e-5 0.30338,8e-5 0.30375,-5e-5 0.30378,1.7e-4 0.30359,-1.2e-4 0.30345,1.5e-4 h 0.30357 l 0.30368,1.3e-4 0.30356,1.2e-4 0.30379,7e-5 0.30337,10e-5 0.30356,7e-5 H -6.832 l 0.30278,1.2e-4 0.30356,1.7e-4 0.30478,1.5e-4 0.30336,1.7e-4 0.30388,8e-5 0.30357,1.5e-4 0.30377,2.4e-4 0.30357,1.8e-4 0.30347,1.1e-4 0.30347,3.7e-4 0.30368,1.5e-4 0.30356,4e-4 0.30359,2.7e-4 0.30387,4.5e-4 0.30336,2.4e-4 0.30347,4.4e-4 0.30329,5.7e-4 0.30445,5.6e-4 0.30359,5.7e-4 0.30356,5.9e-4 0.30388,6.4e-4 0.30368,7.2e-4 0.30342,7.6e-4 0.30379,0.001 0.30347,9e-4 0.30377,0.001 0.30357,0.0013 0.30357,0.0012 0.30367,0.0014 0.30337,0.0016 0.30398,0.0017 0.30346,0.0019 0.30338,0.002 0.30397,0.0024 0.30357,0.0024 0.30298,0.0027 0.30296,0.003 0.30498,0.0033 0.30368,0.0037 0.30367,0.004 0.30377,0.0043 0.30356,0.0049 0.30357,0.0052 0.30328,0.0059 0.30376,0.0062 0.30357,0.0072 0.30359,0.0075 0.30356,0.0086 0.30357,0.0092 0.30399,0.01023 0.30336,0.0113 0.30357,0.01243 0.30407,0.01369 0.30348,0.01512 0.30368,0.01674 0.30356,0.01848 0.30388,0.02028 0.30337,0.02243 0.30356,0.02496 0.30368,0.02759 0.30337,0.03067 0.30376,0.03377 0.30329,0.03804 0.30387,0.04203 0.30306,0.04692 0.30368,0.0528 0.30337,0.05869 0.30488,0.06594 0.30357,0.07448 0.30356,0.08486 0.30368,0.0957 0.30388,0.10927 0.30346,0.12532 0.30358,0.14488 0.30375,0.16864 0.30368,0.19859 0.30358,0.2368 0.30357,0.28687 0.30357,0.35581 0.30368,0.45535 0.30336,0.61194 0.30369,0.88937 0.30366,1.5186 0.30347,3.74675 0.30377,-3.39931 0.30298,-2.05343 0.30336,-1.23978 0.30478,-0.9118 0.30346,-0.73554 0.30379,-0.62595 0.30377,-0.55168 0.30347,-0.49786 0.30377,-0.45807 0.30338,-0.42737 0.30366,-0.40254 0.30338,-0.38328 0.30346,-0.36744 0.30408,-0.35473 0.30327,-0.34485 0.30386,-0.33559 0.30329,-0.32905 0.30377,-0.32392 0.30406,-0.3203 0.30357,-0.318 0.30359,-0.31694 0.30376,-0.31752 0.30348,-0.31975 0.30367,-0.32395 0.30366,-0.33068 0.30348,-0.3406 0.30356,-0.35557 0.30379,-0.37734 0.30367,-0.40927 0.30357,-0.45888 0.30276,-0.5377 0.30428,-0.66176 0.30296,-0.78483 0.30458,-0.1953 0.30358,1.53989 0.30357,1.78038 0.30377,0.47966 0.30377,-0.60318 0.30358,-0.66765 0.30368,-0.57193 0.30356,-0.50035 0.30368,-0.45758 0.30357,-0.4341 0.30356,-0.42511 0.30377,-0.42714 0.30377,-0.43835 0.30307,-0.45771 0.30408,-0.48044 0.30318,-0.49475 0.30356,-0.45787 0.30358,-0.27852 0.30346,0.10022 0.30287,0.48888 0.30519,0.68236 0.30347,0.71216 0.30368,0.64799 0.30365,0.49825 0.30358,0.26487 0.30367,0.01281 0.30336,-0.16697 0.30388,-0.25184 0.30318,-0.27443 0.30397,-0.26721 0.30327,-0.24938 0.30378,-0.2297 0.30367,-0.21329 0.30346,-0.20166 0.30349,-0.19908 0.30426,-0.20734 0.30348,-0.22954 0.30376,-0.26609 0.30367,-0.31638 0.30349,-0.37514 0.30375,-0.43443 0.30369,-0.49027 0.30357,-0.53871 0.30346,-0.58114 0.30338,-0.62069 0.30368,-0.66268 0.30386,-0.71275 0.30347,-0.77747 0.30287,-0.86629 0.30347,-0.99709 0.30488,-1.207 0.30356,-1.6031 0.30358,-2.64996 0.30378,-1.75872 0.30367,2.62113 0.30367,1.00506 0.30358,0.48906 0.30356,0.23729 0.30368,0.08724 0.30376,-0.01361 0.30357,-0.08655 0.30338,-0.14223 0.30367,-0.18634 0.30378,-0.22244 0.30338,-0.25273 0.30364,-0.27845 0.30329,-0.30006 0.30408,-0.31966 0.30305,-0.33654 0.30287,-0.35151 0.30518,-0.36473 0.30348,-0.3759 0.30367,-0.38601 0.30357,-0.39461 0.30377,-0.40202 0.30357,-0.40626 0.30358,-0.41038 0.30346,-0.41222 0.30358,-0.41183 0.30347,-0.40933 0.30377,-0.40482 0.30359,-0.39689 0.30345,-0.38758 0.30317,-0.37615 0.30417,-0.36332 0.30399,-0.34944 0.30366,-0.33531 0.30358,-0.32163 0.30377,-0.30942 0.30368,-0.2985 0.30367,-0.2898 0.30326,-0.28317 0.30376,-0.27799 0.30348,-0.27534 0.30348,-0.27362 0.30367,-0.27358 0.30377,-0.27448 0.30358,-0.27592 0.30326,-0.27795 0.30307,-0.27966 0.30478,-0.28197 0.30367,-0.28256 0.30357,-0.28364 0.30377,-0.28306 0.30378,-0.28177"
                           style="fill:none;stroke:#0571b0;stroke-width:1.49442;stroke-linecap:butt;stroke-linejoin:miter;stroke-miterlimit:10;stroke-dasharray:none;stroke-opacity:1"
                           id="path228" /></g></g></g><g
                     id="g230"><g
                       id="g232"
                       transform="translate(-31.114,-98.633)"><g
                         id="g234"><g
                           id="g236"
                           transform="translate(-76.737,-5.811)"><text
                             transform="matrix(1,0,0,-1,76.737,5.811)"
                             style="font-variant:normal;font-weight:normal;font-size:9.96264px;font-family:LMSans10;-inkscape-font-specification:LMSans10-Regular;writing-mode:lr-tb;fill:#46413c;fill-opacity:1;fill-rule:nonzero;stroke:none"
                             id="text240"><tspan
                               x="0 3.0485678 6.4557905 10.879203 16.029888 21.180573 25.603985 30.754669 35.178082 43.088417 46.963886 54.017433 58.351181"
                               y="0"
                               sodipodi:role="line"
                               id="tspan238">frequency(Hz)</tspan></text><g
                             id="g242"
                             transform="translate(76.737,5.811)" /></g></g><g
                         id="g244"
                         transform="translate(31.114,98.633)" /></g></g><g
                     id="g246"><g
                       id="g248"
                       transform="rotate(90,-16.5205,-81.0955)"><g
                         id="g250"><g
                           id="g252"
                           transform="translate(-10.235,-39.869)"><text
                             transform="matrix(1,0,0,-1,10.235,39.869)"
                             style="font-variant:normal;font-weight:normal;font-size:9.96264px;font-family:LMSans10;-inkscape-font-specification:LMSans10-Regular;writing-mode:lr-tb;fill:#46413c;fill-opacity:1;fill-rule:nonzero;stroke:none"
                             id="text256"><tspan
                               x="0 8.71731 13.50934 18.49066 23.641344 26.022415 29.618929 34.769615 39.9203"
                               y="0"
                               sodipodi:role="line"
                               id="tspan254">Magnitude</tspan></text><g
                             id="g258"
                             transform="translate(10.235,39.869)" /></g></g><g
                         id="g260"
                         transform="translate(97.616,64.575)" /></g></g></g></g><g
                 id="g262"
                 transform="translate(-107.851,-104.444)" /></g><g
               id="g264"
               transform="translate(47.277,31.753)" /></g><g
             id="g266" /><g
             id="g268" /></g></g></g></g></svg>
